  0
SECTION
  2
HEADER
  9
$ACADVER
  1
AC1024
  9
$ACADMAINTVER
 70
     6
  9
$DWGCODEPAGE
  3
ANSI_1252
  9
$INSBASE
 10
0.0
 20
0.0
 30
0.0
  9
$EXTMIN
 10
1.000000000000000E+20
 20
1.000000000000000E+20
 30
1.000000000000000E+20
  9
$EXTMAX
 10
-1.000000000000000E+20
 20
-1.000000000000000E+20
 30
-1.000000000000000E+20
  9
$LIMMIN
 10
0.0
 20
0.0
  9
$LIMMAX
 10
12.0
 20
9.0
  9
$ORTHOMODE
 70
     0
  9
$REGENMODE
 70
     1
  9
$FILLMODE
 70
     1
  9
$QTEXTMODE
 70
     0
  9
$MIRRTEXT
 70
     1
  9
$LTSCALE
 40
1.0
  9
$ATTMODE
 70
     1
  9
$TEXTSIZE
 40
0.2
  9
$TRACEWID
 40
0.05
  9
$TEXTSTYLE
  7
Standard
  9
$CLAYER
  8
0
  9
$CELTYPE
  6
ByLayer
  9
$CECOLOR
 62
   256
  9
$CELTSCALE
 40
1.0
  9
$DISPSILH
 70
     0
  9
$DIMSCALE
 40
1.0
  9
$DIMASZ
 40
0.18
  9
$DIMEXO
 40
0.0625
  9
$DIMDLI
 40
0.38
  9
$DIMRND
 40
0.0
  9
$DIMDLE
 40
0.0
  9
$DIMEXE
 40
0.18
  9
$DIMTP
 40
0.0
  9
$DIMTM
 40
0.0
  9
$DIMTXT
 40
0.18
  9
$DIMCEN
 40
0.09
  9
$DIMTSZ
 40
0.0
  9
$DIMTOL
 70
     0
  9
$DIMLIM
 70
     0
  9
$DIMTIH
 70
     1
  9
$DIMTOH
 70
     1
  9
$DIMSE1
 70
     0
  9
$DIMSE2
 70
     0
  9
$DIMTAD
 70
     0
  9
$DIMZIN
 70
     0
  9
$DIMBLK
  1

  9
$DIMASO
 70
     1
  9
$DIMSHO
 70
     1
  9
$DIMPOST
  1

  9
$DIMAPOST
  1

  9
$DIMALT
 70
     0
  9
$DIMALTD
 70
     2
  9
$DIMALTF
 40
25.4
  9
$DIMLFAC
 40
1.0
  9
$DIMTOFL
 70
     0
  9
$DIMTVP
 40
0.0
  9
$DIMTIX
 70
     0
  9
$DIMSOXD
 70
     0
  9
$DIMSAH
 70
     0
  9
$DIMBLK1
  1

  9
$DIMBLK2
  1

  9
$DIMSTYLE
  2
Standard
  9
$DIMCLRD
 70
     0
  9
$DIMCLRE
 70
     0
  9
$DIMCLRT
 70
     0
  9
$DIMTFAC
 40
1.0
  9
$DIMGAP
 40
0.09
  9
$DIMJUST
 70
     0
  9
$DIMSD1
 70
     0
  9
$DIMSD2
 70
     0
  9
$DIMTOLJ
 70
     1
  9
$DIMTZIN
 70
     0
  9
$DIMALTZ
 70
     0
  9
$DIMALTTZ
 70
     0
  9
$DIMUPT
 70
     0
  9
$DIMDEC
 70
     4
  9
$DIMTDEC
 70
     4
  9
$DIMALTU
 70
     2
  9
$DIMALTTD
 70
     2
  9
$DIMTXSTY
  7
Standard
  9
$DIMAUNIT
 70
     0
  9
$DIMADEC
 70
     0
  9
$DIMALTRND
 40
0.0
  9
$DIMAZIN
 70
     0
  9
$DIMDSEP
 70
    46
  9
$DIMATFIT
 70
     3
  9
$DIMFRAC
 70
     0
  9
$DIMLDRBLK
  1

  9
$DIMLUNIT
 70
     2
  9
$DIMLWD
 70
    -2
  9
$DIMLWE
 70
    -2
  9
$DIMTMOVE
 70
     0
  9
$DIMFXL
 40
1.0
  9
$DIMFXLON
 70
     0
  9
$DIMJOGANG
 40
0.7853981633974483
  9
$DIMTFILL
 70
     0
  9
$DIMTFILLCLR
 70
     0
  9
$DIMARCSYM
 70
     0
  9
$DIMLTYPE
  6

  9
$DIMLTEX1
  6

  9
$DIMLTEX2
  6

  9
$DIMTXTDIRECTION
 70
     0
  9
$LUNITS
 70
     2
  9
$LUPREC
 70
     4
  9
$SKETCHINC
 40
0.1
  9
$FILLETRAD
 40
0.5
  9
$AUNITS
 70
     0
  9
$AUPREC
 70
     0
  9
$MENU
  1
.
  9
$ELEVATION
 40
0.0
  9
$PELEVATION
 40
0.0
  9
$THICKNESS
 40
0.0
  9
$LIMCHECK
 70
     0
  9
$CHAMFERA
 40
0.5
  9
$CHAMFERB
 40
0.5
  9
$CHAMFERC
 40
1.0
  9
$CHAMFERD
 40
0.0
  9
$SKPOLY
 70
     0
  9
$TDCREATE
 40
2457903.346654537
  9
$TDUCREATE
 40
2457903.513321204
  9
$TDUPDATE
 40
2457903.346665775
  9
$TDUUPDATE
 40
2457903.513332442
  9
$TDINDWG
 40
0.0000000116
  9
$TDUSRTIMER
 40
0.0000000116
  9
$USRTIMER
 70
     1
  9
$ANGBASE
 50
0.0
  9
$ANGDIR
 70
     0
  9
$PDMODE
 70
     0
  9
$PDSIZE
 40
0.0
  9
$PLINEWID
 40
0.0
  9
$SPLFRAME
 70
     0
  9
$SPLINETYPE
 70
     6
  9
$SPLINESEGS
 70
     8
  9
$HANDSEED
  5
17C
  9
$SURFTAB1
 70
     6
  9
$SURFTAB2
 70
     6
  9
$SURFTYPE
 70
     6
  9
$SURFU
 70
     6
  9
$SURFV
 70
     6
  9
$UCSBASE
  2

  9
$UCSNAME
  2

  9
$UCSORG
 10
0.0
 20
0.0
 30
0.0
  9
$UCSXDIR
 10
1.0
 20
0.0
 30
0.0
  9
$UCSYDIR
 10
0.0
 20
1.0
 30
0.0
  9
$UCSORTHOREF
  2

  9
$UCSORTHOVIEW
 70
     0
  9
$UCSORGTOP
 10
0.0
 20
0.0
 30
0.0
  9
$UCSORGBOTTOM
 10
0.0
 20
0.0
 30
0.0
  9
$UCSORGLEFT
 10
0.0
 20
0.0
 30
0.0
  9
$UCSORGRIGHT
 10
0.0
 20
0.0
 30
0.0
  9
$UCSORGFRONT
 10
0.0
 20
0.0
 30
0.0
  9
$UCSORGBACK
 10
0.0
 20
0.0
 30
0.0
  9
$PUCSBASE
  2

  9
$PUCSNAME
  2

  9
$PUCSORG
 10
0.0
 20
0.0
 30
0.0
  9
$PUCSXDIR
 10
1.0
 20
0.0
 30
0.0
  9
$PUCSYDIR
 10
0.0
 20
1.0
 30
0.0
  9
$PUCSORTHOREF
  2

  9
$PUCSORTHOVIEW
 70
     0
  9
$PUCSORGTOP
 10
0.0
 20
0.0
 30
0.0
  9
$PUCSORGBOTTOM
 10
0.0
 20
0.0
 30
0.0
  9
$PUCSORGLEFT
 10
0.0
 20
0.0
 30
0.0
  9
$PUCSORGRIGHT
 10
0.0
 20
0.0
 30
0.0
  9
$PUCSORGFRONT
 10
0.0
 20
0.0
 30
0.0
  9
$PUCSORGBACK
 10
0.0
 20
0.0
 30
0.0
  9
$USERI1
 70
     0
  9
$USERI2
 70
     0
  9
$USERI3
 70
     0
  9
$USERI4
 70
     0
  9
$USERI5
 70
     0
  9
$USERR1
 40
0.0
  9
$USERR2
 40
0.0
  9
$USERR3
 40
0.0
  9
$USERR4
 40
0.0
  9
$USERR5
 40
0.0
  9
$WORLDVIEW
 70
     1
  9
$SHADEDGE
 70
     3
  9
$SHADEDIF
 70
    70
  9
$TILEMODE
 70
     1
  9
$MAXACTVP
 70
    64
  9
$PINSBASE
 10
0.0
 20
0.0
 30
0.0
  9
$PLIMCHECK
 70
     0
  9
$PEXTMIN
 10
1.000000000000000E+20
 20
1.000000000000000E+20
 30
1.000000000000000E+20
  9
$PEXTMAX
 10
-1.000000000000000E+20
 20
-1.000000000000000E+20
 30
-1.000000000000000E+20
  9
$PLIMMIN
 10
0.0
 20
0.0
  9
$PLIMMAX
 10
12.0
 20
9.0
  9
$UNITMODE
 70
     0
  9
$VISRETAIN
 70
     1
  9
$PLINEGEN
 70
     0
  9
$PSLTSCALE
 70
     1
  9
$TREEDEPTH
 70
  3020
  9
$CMLSTYLE
  2
Standard
  9
$CMLJUST
 70
     0
  9
$CMLSCALE
 40
1.0
  9
$PROXYGRAPHICS
 70
     1
  9
$MEASUREMENT
 70
     0
  9
$CELWEIGHT
370
    -1
  9
$ENDCAPS
280
     0
  9
$JOINSTYLE
280
     0
  9
$LWDISPLAY
290
     1
  9
$INSUNITS
 70
     1
  9
$HYPERLINKBASE
  1

  9
$STYLESHEET
  1

  9
$XEDIT
290
     1
  9
$CEPSNTYPE
380
     0
  9
$PSTYLEMODE
290
     1
  9
$FINGERPRINTGUID
  2
{3D563FB0-5C1F-4154-9E22-143AFC875133}
  9
$VERSIONGUID
  2
{FAEB1C32-E019-11D5-929B-00C0DF256EC4}
  9
$EXTNAMES
290
     1
  9
$PSVPSCALE
 40
0.0
  9
$OLESTARTUP
290
     0
  9
$SORTENTS
280
   127
  9
$INDEXCTL
280
     0
  9
$HIDETEXT
280
     1
  9
$XCLIPFRAME
280
     2
  9
$HALOGAP
280
     0
  9
$OBSCOLOR
 70
   257
  9
$OBSLTYPE
280
     0
  9
$INTERSECTIONDISPLAY
280
     0
  9
$INTERSECTIONCOLOR
 70
   257
  9
$DIMASSOC
280
     2
  9
$PROJECTNAME
  1

  9
$CAMERADISPLAY
290
     0
  9
$LENSLENGTH
 40
50.0
  9
$CAMERAHEIGHT
 40
0.0
  9
$STEPSPERSEC
 40
2.0
  9
$STEPSIZE
 40
6.0
  9
$3DDWFPREC
 40
2.0
  9
$PSOLWIDTH
 40
0.25
  9
$PSOLHEIGHT
 40
4.0
  9
$LOFTANG1
 40
1.570796326794897
  9
$LOFTANG2
 40
1.570796326794897
  9
$LOFTMAG1
 40
0.0
  9
$LOFTMAG2
 40
0.0
  9
$LOFTPARAM
 70
     7
  9
$LOFTNORMALS
280
     1
  9
$LATITUDE
 40
37.795
  9
$LONGITUDE
 40
-122.394
  9
$NORTHDIRECTION
 40
0.0
  9
$TIMEZONE
 70
 -8000
  9
$LIGHTGLYPHDISPLAY
280
     1
  9
$TILEMODELIGHTSYNCH
280
     1
  9
$CMATERIAL
347
3C
  9
$SOLIDHIST
280
     1
  9
$SHOWHIST
280
     1
  9
$DWFFRAME
280
     2
  9
$DGNFRAME
280
     2
  9
$REALWORLDSCALE
290
     1
  9
$INTERFERECOLOR
 62
   256
  9
$CSHADOW
280
     0
  9
$SHADOWPLANELOCATION
 40
0.0
  0
ENDSEC
  0
SECTION
  2
CLASSES
  0
CLASS
  1
ACDBDICTIONARYWDFLT
  2
AcDbDictionaryWithDefault
  3
ObjectDBX Classes
 90
        0
 91
        4
280
     0
281
     0
  0
CLASS
  1
VISUALSTYLE
  2
AcDbVisualStyle
  3
ObjectDBX Classes
 90
     4095
 91
        4
280
     0
281
     0
  0
CLASS
  1
MATERIAL
  2
AcDbMaterial
  3
ObjectDBX Classes
 90
     1153
 91
        4
280
     0
281
     0
  0
CLASS
  1
SUN
  2
AcDbSun
  3
SCENEOE
 90
     1024
 91
        4
280
     0
281
     0
  0
ENDSEC
  0
SECTION
  2
TABLES
  0
TABLE
  2
VPORT
  5
8
330
0
100
AcDbSymbolTable
 70
     1
  0
VPORT
  5
29
330
8
100
AcDbSymbolTableRecord
100
AcDbViewportTableRecord
  2
*Active
 70
     0
 10
0.0
 20
0.0
 11
1.0
 21
1.0
 12
0.0
 22
0.0
 13
0.0
 23
0.0
 14
0.5
 24
0.5
 15
0.5
 25
0.5
 16
0.0
 26
0.0
 36
1.0
 17
306.0
 27
396.0
 37
0.0
 40
792.0
 41
0.7727272727272727
 42
50.0
 43
0.0
 44
0.0
 50
0.0
 51
0.0
 71
     0
 72
   100
 73
     1
 74
     3
 75
     0
 76
     0
 77
     0
 78
     0
281
     0
 65
     1
110
0.0
120
0.0
130
0.0
111
1.0
121
0.0
131
0.0
112
0.0
122
1.0
132
0.0
 79
     0
146
0.0
 60
     3
 61
     5
292
     1
282
     1
141
0.0
142
0.0
 63
   250
361
3F
  0
ENDTAB
  0
TABLE
  2
LTYPE
  5
5
330
0
100
AcDbSymbolTable
 70
     1
  0
LTYPE
  5
14
330
5
100
AcDbSymbolTableRecord
100
AcDbLinetypeTableRecord
  2
ByBlock
 70
     0
  3

 72
    65
 73
     0
 40
0.0
  0
LTYPE
  5
15
330
5
100
AcDbSymbolTableRecord
100
AcDbLinetypeTableRecord
  2
ByLayer
 70
     0
  3

 72
    65
 73
     0
 40
0.0
  0
LTYPE
  5
16
330
5
100
AcDbSymbolTableRecord
100
AcDbLinetypeTableRecord
  2
Continuous
 70
     0
  3
Solid line
 72
    65
 73
     0
 40
0.0
  0
ENDTAB
  0
TABLE
  2
LAYER
  5
2
330
0
100
AcDbSymbolTable
 70
     1
  0
LAYER
  5
10
330
2
100
AcDbSymbolTableRecord
100
AcDbLayerTableRecord
  2
0
 70
     0
 62
     7
  6
Continuous
370
    -3
390
F
347
3E
  0
ENDTAB
  0
TABLE
  2
STYLE
  5
3
330
0
100
AcDbSymbolTable
 70
     1
  0
STYLE
  5
11
330
3
100
AcDbSymbolTableRecord
100
AcDbTextStyleTableRecord
  2
Standard
 70
     0
 40
0.0
 41
1.0
 50
0.0
 71
     0
 42
0.2
  3
txt
  4

  0
ENDTAB
  0
TABLE
  2
VIEW
  5
6
330
0
100
AcDbSymbolTable
 70
     0
  0
ENDTAB
  0
TABLE
  2
UCS
  5
7
330
0
100
AcDbSymbolTable
 70
     0
  0
ENDTAB
  0
TABLE
  2
APPID
  5
9
330
0
100
AcDbSymbolTable
 70
     1
  0
APPID
  5
12
330
9
100
AcDbSymbolTableRecord
100
AcDbRegAppTableRecord
  2
ACAD
 70
     0
  0
ENDTAB
  0
TABLE
  2
DIMSTYLE
  5
A
330
0
100
AcDbSymbolTable
 70
     1
100
AcDbDimStyleTable
  0
DIMSTYLE
105
27
330
A
100
AcDbSymbolTableRecord
100
AcDbDimStyleTableRecord
  2
Standard
 70
     0
178
     0
340
11
  0
ENDTAB
  0
TABLE
  2
BLOCK_RECORD
  5
1
330
0
100
AcDbSymbolTable
 70
    49
  0
BLOCK_RECORD
  5
1F
330
1
100
AcDbSymbolTableRecord
100
AcDbBlockTableRecord
  2
*Model_Space
340
22
 70
     0
280
     1
281
     0
  0
BLOCK_RECORD
  5
1B
330
1
100
AcDbSymbolTableRecord
100
AcDbBlockTableRecord
  2
*Paper_Space
340
1E
 70
     0
280
     1
281
     0
  0
BLOCK_RECORD
  5
23
330
1
100
AcDbSymbolTableRecord
100
AcDbBlockTableRecord
  2
*Paper_Space0
340
26
 70
     0
280
     1
281
     0
  0
BLOCK_RECORD
  5
40
330
1
100
AcDbSymbolTableRecord
100
AcDbBlockTableRecord
  2
block 2
340
0
102
{BLKREFS
331
41
102
}
 70
     0
280
     1
281
     0
  0
BLOCK_RECORD
  5
48
330
1
100
AcDbSymbolTableRecord
100
AcDbBlockTableRecord
  2
block 3
340
0
102
{BLKREFS
331
49
102
}
 70
     0
280
     1
281
     0
  0
BLOCK_RECORD
  5
4D
330
1
100
AcDbSymbolTableRecord
100
AcDbBlockTableRecord
  2
block 4
340
0
102
{BLKREFS
331
4E
102
}
 70
     0
280
     1
281
     0
  0
BLOCK_RECORD
  5
55
330
1
100
AcDbSymbolTableRecord
100
AcDbBlockTableRecord
  2
block 5
340
0
102
{BLKREFS
331
56
102
}
 70
     0
280
     1
281
     0
  0
BLOCK_RECORD
  5
5A
330
1
100
AcDbSymbolTableRecord
100
AcDbBlockTableRecord
  2
block 6
340
0
102
{BLKREFS
331
5B
102
}
 70
     0
280
     1
281
     0
  0
BLOCK_RECORD
  5
62
330
1
100
AcDbSymbolTableRecord
100
AcDbBlockTableRecord
  2
block 7
340
0
102
{BLKREFS
331
63
102
}
 70
     0
280
     1
281
     0
  0
BLOCK_RECORD
  5
67
330
1
100
AcDbSymbolTableRecord
100
AcDbBlockTableRecord
  2
block 8
340
0
102
{BLKREFS
331
68
102
}
 70
     0
280
     1
281
     0
  0
BLOCK_RECORD
  5
6F
330
1
100
AcDbSymbolTableRecord
100
AcDbBlockTableRecord
  2
block 9
340
0
102
{BLKREFS
331
70
102
}
 70
     0
280
     1
281
     0
  0
BLOCK_RECORD
  5
74
330
1
100
AcDbSymbolTableRecord
100
AcDbBlockTableRecord
  2
block 10
340
0
102
{BLKREFS
331
75
102
}
 70
     0
280
     1
281
     0
  0
BLOCK_RECORD
  5
7C
330
1
100
AcDbSymbolTableRecord
100
AcDbBlockTableRecord
  2
block 11
340
0
102
{BLKREFS
331
7D
102
}
 70
     0
280
     1
281
     0
  0
BLOCK_RECORD
  5
81
330
1
100
AcDbSymbolTableRecord
100
AcDbBlockTableRecord
  2
block 12
340
0
102
{BLKREFS
331
82
102
}
 70
     0
280
     1
281
     0
  0
BLOCK_RECORD
  5
89
330
1
100
AcDbSymbolTableRecord
100
AcDbBlockTableRecord
  2
block 13
340
0
102
{BLKREFS
331
8A
102
}
 70
     0
280
     1
281
     0
  0
BLOCK_RECORD
  5
8E
330
1
100
AcDbSymbolTableRecord
100
AcDbBlockTableRecord
  2
block 14
340
0
102
{BLKREFS
331
8F
102
}
 70
     0
280
     1
281
     0
  0
BLOCK_RECORD
  5
96
330
1
100
AcDbSymbolTableRecord
100
AcDbBlockTableRecord
  2
block 15
340
0
102
{BLKREFS
331
97
102
}
 70
     0
280
     1
281
     0
  0
BLOCK_RECORD
  5
9B
330
1
100
AcDbSymbolTableRecord
100
AcDbBlockTableRecord
  2
block 16
340
0
102
{BLKREFS
331
9C
102
}
 70
     0
280
     1
281
     0
  0
BLOCK_RECORD
  5
A3
330
1
100
AcDbSymbolTableRecord
100
AcDbBlockTableRecord
  2
block 17
340
0
102
{BLKREFS
331
A4
102
}
 70
     0
280
     1
281
     0
  0
BLOCK_RECORD
  5
A8
330
1
100
AcDbSymbolTableRecord
100
AcDbBlockTableRecord
  2
block 18
340
0
102
{BLKREFS
331
A9
102
}
 70
     0
280
     1
281
     0
  0
BLOCK_RECORD
  5
B0
330
1
100
AcDbSymbolTableRecord
100
AcDbBlockTableRecord
  2
block 19
340
0
102
{BLKREFS
331
B1
102
}
 70
     0
280
     1
281
     0
  0
BLOCK_RECORD
  5
B5
330
1
100
AcDbSymbolTableRecord
100
AcDbBlockTableRecord
  2
block 20
340
0
102
{BLKREFS
331
B6
102
}
 70
     0
280
     1
281
     0
  0
BLOCK_RECORD
  5
BD
330
1
100
AcDbSymbolTableRecord
100
AcDbBlockTableRecord
  2
block 21
340
0
102
{BLKREFS
331
BE
102
}
 70
     0
280
     1
281
     0
  0
BLOCK_RECORD
  5
C2
330
1
100
AcDbSymbolTableRecord
100
AcDbBlockTableRecord
  2
block 22
340
0
102
{BLKREFS
331
C3
102
}
 70
     0
280
     1
281
     0
  0
BLOCK_RECORD
  5
CA
330
1
100
AcDbSymbolTableRecord
100
AcDbBlockTableRecord
  2
block 23
340
0
102
{BLKREFS
331
CB
102
}
 70
     0
280
     1
281
     0
  0
BLOCK_RECORD
  5
CF
330
1
100
AcDbSymbolTableRecord
100
AcDbBlockTableRecord
  2
block 24
340
0
102
{BLKREFS
331
D0
102
}
 70
     0
280
     1
281
     0
  0
BLOCK_RECORD
  5
D7
330
1
100
AcDbSymbolTableRecord
100
AcDbBlockTableRecord
  2
block 25
340
0
102
{BLKREFS
331
D8
102
}
 70
     0
280
     1
281
     0
  0
BLOCK_RECORD
  5
DC
330
1
100
AcDbSymbolTableRecord
100
AcDbBlockTableRecord
  2
block 26
340
0
102
{BLKREFS
331
DD
102
}
 70
     0
280
     1
281
     0
  0
BLOCK_RECORD
  5
E1
330
1
100
AcDbSymbolTableRecord
100
AcDbBlockTableRecord
  2
block 27
340
0
102
{BLKREFS
331
E2
102
}
 70
     0
280
     1
281
     0
  0
BLOCK_RECORD
  5
EA
330
1
100
AcDbSymbolTableRecord
100
AcDbBlockTableRecord
  2
block 28
340
0
102
{BLKREFS
331
EB
102
}
 70
     0
280
     1
281
     0
  0
BLOCK_RECORD
  5
F2
330
1
100
AcDbSymbolTableRecord
100
AcDbBlockTableRecord
  2
block 29
340
0
102
{BLKREFS
331
F3
102
}
 70
     0
280
     1
281
     0
  0
BLOCK_RECORD
  5
F7
330
1
100
AcDbSymbolTableRecord
100
AcDbBlockTableRecord
  2
block 30
340
0
102
{BLKREFS
331
F8
102
}
 70
     0
280
     1
281
     0
  0
BLOCK_RECORD
  5
FC
330
1
100
AcDbSymbolTableRecord
100
AcDbBlockTableRecord
  2
block 31
340
0
102
{BLKREFS
331
FD
102
}
 70
     0
280
     1
281
     0
  0
BLOCK_RECORD
  5
105
330
1
100
AcDbSymbolTableRecord
100
AcDbBlockTableRecord
  2
block 32
340
0
102
{BLKREFS
331
106
102
}
 70
     0
280
     1
281
     0
  0
BLOCK_RECORD
  5
10D
330
1
100
AcDbSymbolTableRecord
100
AcDbBlockTableRecord
  2
block 33
340
0
102
{BLKREFS
331
10E
102
}
 70
     0
280
     1
281
     0
  0
BLOCK_RECORD
  5
115
330
1
100
AcDbSymbolTableRecord
100
AcDbBlockTableRecord
  2
block 34
340
0
102
{BLKREFS
331
116
102
}
 70
     0
280
     1
281
     0
  0
BLOCK_RECORD
  5
11A
330
1
100
AcDbSymbolTableRecord
100
AcDbBlockTableRecord
  2
block 35
340
0
102
{BLKREFS
331
11B
102
}
 70
     0
280
     1
281
     0
  0
BLOCK_RECORD
  5
122
330
1
100
AcDbSymbolTableRecord
100
AcDbBlockTableRecord
  2
block 36
340
0
102
{BLKREFS
331
123
102
}
 70
     0
280
     1
281
     0
  0
BLOCK_RECORD
  5
127
330
1
100
AcDbSymbolTableRecord
100
AcDbBlockTableRecord
  2
block 37
340
0
102
{BLKREFS
331
128
102
}
 70
     0
280
     1
281
     0
  0
BLOCK_RECORD
  5
12F
330
1
100
AcDbSymbolTableRecord
100
AcDbBlockTableRecord
  2
block 38
340
0
102
{BLKREFS
331
130
102
}
 70
     0
280
     1
281
     0
  0
BLOCK_RECORD
  5
134
330
1
100
AcDbSymbolTableRecord
100
AcDbBlockTableRecord
  2
block 39
340
0
102
{BLKREFS
331
135
102
}
 70
     0
280
     1
281
     0
  0
BLOCK_RECORD
  5
13C
330
1
100
AcDbSymbolTableRecord
100
AcDbBlockTableRecord
  2
block 40
340
0
102
{BLKREFS
331
13D
102
}
 70
     0
280
     1
281
     0
  0
BLOCK_RECORD
  5
141
330
1
100
AcDbSymbolTableRecord
100
AcDbBlockTableRecord
  2
block 41
340
0
102
{BLKREFS
331
142
102
}
 70
     0
280
     1
281
     0
  0
BLOCK_RECORD
  5
146
330
1
100
AcDbSymbolTableRecord
100
AcDbBlockTableRecord
  2
block 42
340
0
102
{BLKREFS
331
147
102
}
 70
     0
280
     1
281
     0
  0
BLOCK_RECORD
  5
14E
330
1
100
AcDbSymbolTableRecord
100
AcDbBlockTableRecord
  2
block 43
340
0
102
{BLKREFS
331
14F
102
}
 70
     0
280
     1
281
     0
  0
BLOCK_RECORD
  5
153
330
1
100
AcDbSymbolTableRecord
100
AcDbBlockTableRecord
  2
block 44
340
0
102
{BLKREFS
331
154
102
}
 70
     0
280
     1
281
     0
  0
BLOCK_RECORD
  5
15B
330
1
100
AcDbSymbolTableRecord
100
AcDbBlockTableRecord
  2
block 45
340
0
102
{BLKREFS
331
15C
102
}
 70
     0
280
     1
281
     0
  0
BLOCK_RECORD
  5
160
330
1
100
AcDbSymbolTableRecord
100
AcDbBlockTableRecord
  2
block 46
340
0
102
{BLKREFS
331
161
102
}
 70
     0
280
     1
281
     0
  0
BLOCK_RECORD
  5
168
330
1
100
AcDbSymbolTableRecord
100
AcDbBlockTableRecord
  2
block 47
340
0
102
{BLKREFS
331
169
102
}
 70
     0
280
     1
281
     0
  0
BLOCK_RECORD
  5
16D
330
1
100
AcDbSymbolTableRecord
100
AcDbBlockTableRecord
  2
block 48
340
0
102
{BLKREFS
331
16E
102
}
 70
     0
280
     1
281
     0
  0
BLOCK_RECORD
  5
175
330
1
100
AcDbSymbolTableRecord
100
AcDbBlockTableRecord
  2
block 49
340
0
102
{BLKREFS
331
176
102
}
 70
     0
280
     1
281
     0
  0
ENDTAB
  0
ENDSEC
  0
SECTION
  2
BLOCKS
  0
BLOCK
  5
20
330
1F
100
AcDbEntity
  8
0
100
AcDbBlockBegin
  2
*Model_Space
 70
     0
 10
0.0
 20
0.0
 30
0.0
  3
*Model_Space
  1

  0
ENDBLK
  5
21
330
1F
100
AcDbEntity
  8
0
100
AcDbBlockEnd
  0
BLOCK
  5
1C
330
1B
100
AcDbEntity
 67
     1
  8
0
100
AcDbBlockBegin
  2
*Paper_Space
 70
     0
 10
0.0
 20
0.0
 30
0.0
  3
*Paper_Space
  1

  0
ENDBLK
  5
1D
330
1B
100
AcDbEntity
 67
     1
  8
0
100
AcDbBlockEnd
  0
BLOCK
  5
24
330
23
100
AcDbEntity
  8
0
100
AcDbBlockBegin
  2
*Paper_Space0
 70
     0
 10
0.0
 20
0.0
 30
0.0
  3
*Paper_Space0
  1

  0
ENDBLK
  5
25
330
23
100
AcDbEntity
  8
0
100
AcDbBlockEnd
  0
BLOCK
  5
42
330
40
100
AcDbEntity
  8
0
100
AcDbBlockBegin
  2
block 2
 70
     0
 10
0.0
 20
0.0
 30
0.0
  3
block 2
  1

  0
POLYLINE
  5
44
330
40
100
AcDbEntity
  8
0
 62
     7
420
 16777215
370
    25
100
AcDb2dPolyline
 66
     1
 10
0.0
 20
0.0
 30
0.0
  0
VERTEX
  5
45
330
44
100
AcDbEntity
  8
0
 62
     7
420
 16777215
370
    25
100
AcDbVertex
100
AcDb2dVertex
 10
362.7900000000009
 20
416.5
 30
0.0
  0
VERTEX
  5
46
330
44
100
AcDbEntity
  8
0
 62
     7
420
 16777215
370
    25
100
AcDbVertex
100
AcDb2dVertex
 10
362.7900000000009
 20
416.5
 30
0.0
  0
SEQEND
  5
47
330
44
100
AcDbEntity
  8
0
 62
     7
420
 16777215
370
    25
  0
ENDBLK
  5
43
330
40
100
AcDbEntity
  8
0
100
AcDbBlockEnd
  0
BLOCK
  5
4A
330
48
100
AcDbEntity
  8
0
100
AcDbBlockBegin
  2
block 3
 70
     0
 10
0.0
 20
0.0
 30
0.0
  3
block 3
  1

  0
SPLINE
  5
4C
330
48
100
AcDbEntity
  8
0
 62
     7
420
 16777215
370
    25
100
AcDbSpline
210
0.0
220
0.0
230
1.0
 70
    11
 71
     3
 72
    59
 73
    55
 74
     0
 42
0.0000000001
 43
0.0000000001
 12
1.0
 22
0.0
 32
0.0
 13
1.0
 23
0.0
 33
0.0
 40
0.0
 40
0.0
 40
0.0
 40
0.0
 40
1.0
 40
1.0
 40
1.0
 40
2.0
 40
2.0
 40
2.0
 40
3.0
 40
3.0
 40
3.0
 40
4.0
 40
4.0
 40
4.0
 40
5.0
 40
5.0
 40
5.0
 40
6.0
 40
6.0
 40
6.0
 40
7.0
 40
7.0
 40
7.0
 40
8.0
 40
8.0
 40
8.0
 40
9.0
 40
9.0
 40
9.0
 40
10.0
 40
10.0
 40
10.0
 40
11.0
 40
11.0
 40
11.0
 40
12.0
 40
12.0
 40
12.0
 40
13.0
 40
13.0
 40
13.0
 40
14.0
 40
14.0
 40
14.0
 40
15.0
 40
15.0
 40
15.0
 40
16.0
 40
16.0
 40
16.0
 40
17.0
 40
17.0
 40
17.0
 40
18.0
 40
18.0
 40
18.0
 40
18.0
 10
362.7900000000009
 20
416.5
 30
0.0
 10
362.7703551106606
 20
416.6929683936733
 30
0.0
 10
362.7507102213203
 20
416.8859367873465
 30
0.0
 10
362.6897399999998
 20
417.0671480000001
 30
0.0
 10
362.629642750293
 20
417.2457646305593
 30
0.0
 10
362.5293950888863
 20
417.4129583484464
 30
0.0
 10
362.4060279999994
 20
417.558865
 30
0.0
 10
362.2808685987202
 20
417.7068914251677
 30
0.0
 10
362.1319131187902
 20
417.8330077617275
 30
0.0
 10
361.9651969999995
 20
417.9295110000003
 30
0.0
 10
361.7984812098239
 20
418.026014048055
 30
0.0
 10
361.6140048508023
 20
418.0929041145637
 30
0.0
 10
361.4238480000004
 20
418.1261080000004
 30
0.0
 10
361.2364136845645
 20
418.1588364949785
 30
0.0
 10
361.0434603717022
 20
418.1588364949785
 30
0.0
 10
360.8561520000003
 20
418.1261080000004
 30
0.0
 10
360.6661229222991
 20
418.0929041145637
 30
0.0
 10
360.4819039654194
 20
418.026014048055
 30
0.0
 10
360.3148029999993
 20
417.9295110000003
 30
0.0
 10
360.1477017052075
 20
417.8330077617275
 30
0.0
 10
359.997718469358
 20
417.7068914251677
 30
0.0
 10
359.8739719999994
 20
417.558865
 30
0.0
 10
359.7519976095136
 20
417.4129583484464
 30
0.0
 10
359.6555139323991
 20
417.2457646305593
 30
0.0
 10
359.5902600000009
 20
417.0671480000001
 30
0.0
 10
359.5240581901053
 20
416.8859367873465
 30
0.0
 10
359.4899999999998
 20
416.6929683936733
 30
0.0
 10
359.4899999999998
 20
416.5
 30
0.0
 10
359.4899999999998
 20
416.3070316063267
 30
0.0
 10
359.5240581901053
 20
416.1140632126535
 30
0.0
 10
359.5902600000009
 20
415.9328519999999
 30
0.0
 10
359.6555139323991
 20
415.7542353694407
 30
0.0
 10
359.7519976095136
 20
415.5870416515536
 30
0.0
 10
359.8739719999994
 20
415.441135
 30
0.0
 10
359.997718469358
 20
415.2931085748323
 30
0.0
 10
360.1477017052075
 20
415.1669922382725
 30
0.0
 10
360.3148029999993
 20
415.0704889999997
 30
0.0
 10
360.4819039654194
 20
414.973985951945
 30
0.0
 10
360.6661229222991
 20
414.9070958854363
 30
0.0
 10
360.8561520000003
 20
414.8738919999996
 30
0.0
 10
361.0434603717022
 20
414.8411635050215
 30
0.0
 10
361.2364136845645
 20
414.8411635050215
 30
0.0
 10
361.4238480000004
 20
414.8738919999996
 30
0.0
 10
361.6140048508023
 20
414.9070958854363
 30
0.0
 10
361.7984812098239
 20
414.973985951945
 30
0.0
 10
361.9651969999995
 20
415.0704889999997
 30
0.0
 10
362.1319131187902
 20
415.1669922382725
 30
0.0
 10
362.2808685987202
 20
415.2931085748323
 30
0.0
 10
362.4060279999994
 20
415.441135
 30
0.0
 10
362.5293950888863
 20
415.5870416515536
 30
0.0
 10
362.629642750293
 20
415.7542353694407
 30
0.0
 10
362.6897399999998
 20
415.9328519999999
 30
0.0
 10
362.7507102213203
 20
416.1140632126535
 30
0.0
 10
362.7703551106606
 20
416.3070316063267
 30
0.0
 10
362.7900000000009
 20
416.5
 30
0.0
  0
ENDBLK
  5
4B
330
48
100
AcDbEntity
  8
0
100
AcDbBlockEnd
  0
BLOCK
  5
4F
330
4D
100
AcDbEntity
  8
0
100
AcDbBlockBegin
  2
block 4
 70
     0
 10
0.0
 20
0.0
 30
0.0
  3
block 4
  1

  0
POLYLINE
  5
51
330
4D
100
AcDbEntity
  8
0
 62
     7
420
 16777215
370
    25
100
AcDb2dPolyline
 66
     1
 10
0.0
 20
0.0
 30
0.0
  0
VERTEX
  5
52
330
51
100
AcDbEntity
  8
0
 62
     7
420
 16777215
370
    25
100
AcDbVertex
100
AcDb2dVertex
 10
362.7900000000009
 20
376.5
 30
0.0
  0
VERTEX
  5
53
330
51
100
AcDbEntity
  8
0
 62
     7
420
 16777215
370
    25
100
AcDbVertex
100
AcDb2dVertex
 10
362.7900000000009
 20
376.5
 30
0.0
  0
SEQEND
  5
54
330
51
100
AcDbEntity
  8
0
 62
     7
420
 16777215
370
    25
  0
ENDBLK
  5
50
330
4D
100
AcDbEntity
  8
0
100
AcDbBlockEnd
  0
BLOCK
  5
57
330
55
100
AcDbEntity
  8
0
100
AcDbBlockBegin
  2
block 5
 70
     0
 10
0.0
 20
0.0
 30
0.0
  3
block 5
  1

  0
SPLINE
  5
59
330
55
100
AcDbEntity
  8
0
 62
     7
420
 16777215
370
    25
100
AcDbSpline
210
0.0
220
0.0
230
1.0
 70
    11
 71
     3
 72
    59
 73
    55
 74
     0
 42
0.0000000001
 43
0.0000000001
 12
1.0
 22
0.0
 32
0.0
 13
1.0
 23
0.0
 33
0.0
 40
0.0
 40
0.0
 40
0.0
 40
0.0
 40
1.0
 40
1.0
 40
1.0
 40
2.0
 40
2.0
 40
2.0
 40
3.0
 40
3.0
 40
3.0
 40
4.0
 40
4.0
 40
4.0
 40
5.0
 40
5.0
 40
5.0
 40
6.0
 40
6.0
 40
6.0
 40
7.0
 40
7.0
 40
7.0
 40
8.0
 40
8.0
 40
8.0
 40
9.0
 40
9.0
 40
9.0
 40
10.0
 40
10.0
 40
10.0
 40
11.0
 40
11.0
 40
11.0
 40
12.0
 40
12.0
 40
12.0
 40
13.0
 40
13.0
 40
13.0
 40
14.0
 40
14.0
 40
14.0
 40
15.0
 40
15.0
 40
15.0
 40
16.0
 40
16.0
 40
16.0
 40
17.0
 40
17.0
 40
17.0
 40
18.0
 40
18.0
 40
18.0
 40
18.0
 10
362.7900000000009
 20
376.5
 30
0.0
 10
362.7703551441373
 20
376.6929687204502
 30
0.0
 10
362.7507102882737
 20
376.8859374409003
 30
0.0
 10
362.6897399999998
 20
377.0671490000004
 30
0.0
 10
362.6296427870493
 20
377.245765666652
 30
0.0
 10
362.529395202122
 20
377.4129594788028
 30
0.0
 10
362.4060279999994
 20
377.5588659999994
 30
0.0
 10
362.2808686236895
 20
377.7068921275168
 30
0.0
 10
362.1319130266456
 20
377.8330079841926
 30
0.0
 10
361.9651969999995
 20
377.9295110000003
 30
0.0
 10
361.7984811156839
 20
378.0260139334205
 30
0.0
 10
361.6140048320922
 20
378.092904076535
 30
0.0
 10
361.4238480000004
 20
378.1261080000004
 30
0.0
 10
361.2364137030072
 20
378.1588365324624
 30
0.0
 10
361.0434603534759
 20
378.1588365324678
 30
0.0
 10
360.8561520000003
 20
378.1261080000004
 30
0.0
 10
360.6661229407891
 20
378.0929040765277
 30
0.0
 10
360.4819040588973
 20
378.0260139333914
 30
0.0
 10
360.3148029999993
 20
377.9295110000003
 30
0.0
 10
360.1477017984453
 20
377.8330079842217
 30
0.0
 10
359.9977184491145
 20
377.7068921276295
 30
0.0
 10
359.8739719999994
 20
377.5588659999994
 30
0.0
 10
359.7519974931784
 20
377.4129594786918
 30
0.0
 10
359.655513886617
 20
377.2457656662373
 30
0.0
 10
359.5902600000009
 20
377.0671490000004
 30
0.0
 10
359.5240581233611
 20
376.8859374413205
 30
0.0
 10
359.4899999509325
 20
376.6929687220272
 30
0.0
 10
359.4899999999998
 20
376.5
 30
0.0
 10
359.4900000490688
 20
376.3070316079047
 30
0.0
 10
359.5240582031711
 20
376.1140632130737
 30
0.0
 10
359.5902600000009
 20
375.9328519999999
 30
0.0
 10
359.6555139195189
 20
375.754235369026
 30
0.0
 10
359.7519976060394
 20
375.5870416514426
 30
0.0
 10
359.8739719999994
 20
375.4411350000009
 30
0.0
 10
359.9977184728832
 20
375.293108574946
 30
0.0
 10
360.1477017061516
 20
375.1669922383026
 30
0.0
 10
360.3148029999993
 20
375.0704889999997
 30
0.0
 10
360.4819039644754
 20
374.9739859519141
 30
0.0
 10
360.6661229220481
 20
374.9070958854281
 30
0.0
 10
360.8561520000003
 20
374.8738919999996
 30
0.0
 10
361.0434603719495
 20
374.8411635050306
 30
0.0
 10
361.2364136846318
 20
374.8411635050234
 30
0.0
 10
361.4238480000004
 20
374.8738919999996
 30
0.0
 10
361.614004850735
 20
374.9070958854336
 30
0.0
 10
361.7984812098057
 20
374.973985951945
 30
0.0
 10
361.9651969999995
 20
375.0704889999997
 30
0.0
 10
362.1319131188084
 20
375.1669922382735
 30
0.0
 10
362.2808685987238
 20
375.2931085748314
 30
0.0
 10
362.4060279999994
 20
375.4411350000009
 30
0.0
 10
362.5293950888827
 20
375.5870416515536
 30
0.0
 10
362.6296427502912
 20
375.7542353694407
 30
0.0
 10
362.6897399999998
 20
375.9328519999999
 30
0.0
 10
362.7507102213203
 20
376.1140632126535
 30
0.0
 10
362.7703551106606
 20
376.3070316063277
 30
0.0
 10
362.7900000000009
 20
376.5
 30
0.0
  0
ENDBLK
  5
58
330
55
100
AcDbEntity
  8
0
100
AcDbBlockEnd
  0
BLOCK
  5
5C
330
5A
100
AcDbEntity
  8
0
100
AcDbBlockBegin
  2
block 6
 70
     0
 10
0.0
 20
0.0
 30
0.0
  3
block 6
  1

  0
POLYLINE
  5
5E
330
5A
100
AcDbEntity
  8
0
 62
     7
420
 16777215
370
    25
100
AcDb2dPolyline
 66
     1
 10
0.0
 20
0.0
 30
0.0
  0
VERTEX
  5
5F
330
5E
100
AcDbEntity
  8
0
 62
     7
420
 16777215
370
    25
100
AcDbVertex
100
AcDb2dVertex
 10
328.1499999999996
 20
351.2849999999999
 30
0.0
  0
VERTEX
  5
60
330
5E
100
AcDbEntity
  8
0
 62
     7
420
 16777215
370
    25
100
AcDbVertex
100
AcDb2dVertex
 10
328.1499999999996
 20
351.2849999999999
 30
0.0
  0
SEQEND
  5
61
330
5E
100
AcDbEntity
  8
0
 62
     7
420
 16777215
370
    25
  0
ENDBLK
  5
5D
330
5A
100
AcDbEntity
  8
0
100
AcDbBlockEnd
  0
BLOCK
  5
64
330
62
100
AcDbEntity
  8
0
100
AcDbBlockBegin
  2
block 7
 70
     0
 10
0.0
 20
0.0
 30
0.0
  3
block 7
  1

  0
SPLINE
  5
66
330
62
100
AcDbEntity
  8
0
 62
     7
420
 16777215
370
    25
100
AcDbSpline
210
0.0
220
0.0
230
1.0
 70
    11
 71
     3
 72
    59
 73
    55
 74
     0
 42
0.0000000001
 43
0.0000000001
 12
1.0
 22
0.0
 32
0.0
 13
1.0
 23
0.0
 33
0.0
 40
0.0
 40
0.0
 40
0.0
 40
0.0
 40
1.0
 40
1.0
 40
1.0
 40
2.0
 40
2.0
 40
2.0
 40
3.0
 40
3.0
 40
3.0
 40
4.0
 40
4.0
 40
4.0
 40
5.0
 40
5.0
 40
5.0
 40
6.0
 40
6.0
 40
6.0
 40
7.0
 40
7.0
 40
7.0
 40
8.0
 40
8.0
 40
8.0
 40
9.0
 40
9.0
 40
9.0
 40
10.0
 40
10.0
 40
10.0
 40
11.0
 40
11.0
 40
11.0
 40
12.0
 40
12.0
 40
12.0
 40
13.0
 40
13.0
 40
13.0
 40
14.0
 40
14.0
 40
14.0
 40
15.0
 40
15.0
 40
15.0
 40
16.0
 40
16.0
 40
16.0
 40
17.0
 40
17.0
 40
17.0
 40
18.0
 40
18.0
 40
18.0
 40
18.0
 10
328.1499999999996
 20
351.2849999999999
 30
0.0
 10
328.1303551106612
 20
351.477968393674
 30
0.0
 10
328.1107102213209
 20
351.6709367873464
 30
0.0
 10
328.0497400000004
 20
351.8521479999999
 30
0.0
 10
327.9896427502918
 20
352.0307646305591
 30
0.0
 10
327.8893950888814
 20
352.1979583484463
 30
0.0
 10
327.766028
 20
352.3438650000007
 30
0.0
 10
327.6408685987244
 20
352.4918914251684
 30
0.0
 10
327.491913118809
 20
352.6180077617264
 30
0.0
 10
327.3251970000001
 20
352.7145110000001
 30
0.0
 10
327.1584812098063
 20
352.8110140480549
 30
0.0
 10
326.9740048507338
 20
352.8779041145663
 30
0.0
 10
326.7838479999991
 20
352.9111080000002
 30
0.0
 10
326.5964136846324
 20
352.9438364949765
 30
0.0
 10
326.4034603719501
 20
352.9438364949692
 30
0.0
 10
326.2161520000009
 20
352.9111080000002
 30
0.0
 10
326.0261229220469
 20
352.8779041145717
 30
0.0
 10
325.8419039644759
 20
352.8110140480858
 30
0.0
 10
325.6748029999999
 20
352.7145110000001
 30
0.0
 10
325.5077017061521
 20
352.6180077616973
 30
0.0
 10
325.3577184728838
 20
352.4918914250538
 30
0.0
 10
325.233972
 20
352.3438650000007
 30
0.0
 10
325.1119976060399
 20
352.197958348559
 30
0.0
 10
325.0155139195194
 20
352.0307646309739
 30
0.0
 10
324.9502599999996
 20
351.8521479999999
 30
0.0
 10
324.8840582031717
 20
351.6709367869262
 30
0.0
 10
324.8500000490676
 20
351.4779683920951
 30
0.0
 10
324.8500000000004
 20
351.2849999999999
 30
0.0
 10
324.8499999509313
 20
351.0920312779726
 30
0.0
 10
324.8840581233617
 20
350.8990625586812
 30
0.0
 10
324.9502599999996
 20
350.7178509999994
 30
0.0
 10
325.0155138866176
 20
350.5392343337626
 30
0.0
 10
325.1119974931771
 20
350.372040521308
 30
0.0
 10
325.233972
 20
350.2261340000005
 30
0.0
 10
325.3577184491132
 20
350.0781078723703
 30
0.0
 10
325.5077017984459
 20
349.9519920157782
 30
0.0
 10
325.6748029999999
 20
349.8554889999996
 30
0.0
 10
325.841904058896
 20
349.7589860666085
 30
0.0
 10
326.0261229407879
 20
349.6920959234722
 30
0.0
 10
326.2161520000009
 20
349.6588919999995
 30
0.0
 10
326.4034603534765
 20
349.626163467532
 30
0.0
 10
326.596413703006
 20
349.6261634675375
 30
0.0
 10
326.7838479999991
 20
349.6588919999995
 30
0.0
 10
326.9740048320928
 20
349.6920959234649
 30
0.0
 10
327.1584811156845
 20
349.7589860665794
 30
0.0
 10
327.3251970000001
 20
349.8554889999996
 30
0.0
 10
327.4919130266444
 20
349.9519920158073
 30
0.0
 10
327.64086862369
 20
350.0781078724831
 30
0.0
 10
327.766028
 20
350.2261340000005
 30
0.0
 10
327.8893952021208
 20
350.3720405211971
 30
0.0
 10
327.9896427870499
 20
350.5392343333478
 30
0.0
 10
328.0497400000004
 20
350.7178509999994
 30
0.0
 10
328.1107102882743
 20
350.8990625591014
 30
0.0
 10
328.130355144136
 20
351.0920312795497
 30
0.0
 10
328.1499999999996
 20
351.2849999999999
 30
0.0
  0
ENDBLK
  5
65
330
62
100
AcDbEntity
  8
0
100
AcDbBlockEnd
  0
BLOCK
  5
69
330
67
100
AcDbEntity
  8
0
100
AcDbBlockBegin
  2
block 8
 70
     0
 10
0.0
 20
0.0
 30
0.0
  3
block 8
  1

  0
POLYLINE
  5
6B
330
67
100
AcDbEntity
  8
0
 62
     7
420
 16777215
370
    25
100
AcDb2dPolyline
 66
     1
 10
0.0
 20
0.0
 30
0.0
  0
VERTEX
  5
6C
330
6B
100
AcDbEntity
  8
0
 62
     7
420
 16777215
370
    25
100
AcDbVertex
100
AcDb2dVertex
 10
288.1499999999996
 20
351.2849999999999
 30
0.0
  0
VERTEX
  5
6D
330
6B
100
AcDbEntity
  8
0
 62
     7
420
 16777215
370
    25
100
AcDbVertex
100
AcDb2dVertex
 10
288.1499999999996
 20
351.2849999999999
 30
0.0
  0
SEQEND
  5
6E
330
6B
100
AcDbEntity
  8
0
 62
     7
420
 16777215
370
    25
  0
ENDBLK
  5
6A
330
67
100
AcDbEntity
  8
0
100
AcDbBlockEnd
  0
BLOCK
  5
71
330
6F
100
AcDbEntity
  8
0
100
AcDbBlockBegin
  2
block 9
 70
     0
 10
0.0
 20
0.0
 30
0.0
  3
block 9
  1

  0
SPLINE
  5
73
330
6F
100
AcDbEntity
  8
0
 62
     7
420
 16777215
370
    25
100
AcDbSpline
210
0.0
220
0.0
230
1.0
 70
    11
 71
     3
 72
    59
 73
    55
 74
     0
 42
0.0000000001
 43
0.0000000001
 12
1.0
 22
0.0
 32
0.0
 13
1.0
 23
0.0
 33
0.0
 40
0.0
 40
0.0
 40
0.0
 40
0.0
 40
1.0
 40
1.0
 40
1.0
 40
2.0
 40
2.0
 40
2.0
 40
3.0
 40
3.0
 40
3.0
 40
4.0
 40
4.0
 40
4.0
 40
5.0
 40
5.0
 40
5.0
 40
6.0
 40
6.0
 40
6.0
 40
7.0
 40
7.0
 40
7.0
 40
8.0
 40
8.0
 40
8.0
 40
9.0
 40
9.0
 40
9.0
 40
10.0
 40
10.0
 40
10.0
 40
11.0
 40
11.0
 40
11.0
 40
12.0
 40
12.0
 40
12.0
 40
13.0
 40
13.0
 40
13.0
 40
14.0
 40
14.0
 40
14.0
 40
15.0
 40
15.0
 40
15.0
 40
16.0
 40
16.0
 40
16.0
 40
17.0
 40
17.0
 40
17.0
 40
18.0
 40
18.0
 40
18.0
 40
18.0
 10
288.1499999999996
 20
351.2849999999999
 30
0.0
 10
288.1303551106603
 20
351.477968393674
 30
0.0
 10
288.1107102213209
 20
351.6709367873464
 30
0.0
 10
288.0497400000004
 20
351.8521479999999
 30
0.0
 10
287.9896427502918
 20
352.0307646305591
 30
0.0
 10
287.8893950888814
 20
352.1979583484463
 30
0.0
 10
287.766028
 20
352.3438650000007
 30
0.0
 10
287.6408685987244
 20
352.4918914251684
 30
0.0
 10
287.491913118809
 20
352.6180077617264
 30
0.0
 10
287.3251970000001
 20
352.7145110000001
 30
0.0
 10
287.1584812098054
 20
352.8110140480549
 30
0.0
 10
286.9740048507347
 20
352.8779041145663
 30
0.0
 10
286.783848
 20
352.9111080000002
 30
0.0
 10
286.5964136846314
 20
352.9438364949765
 30
0.0
 10
286.4034603719492
 20
352.9438364949692
 30
0.0
 10
286.216152
 20
352.9111080000002
 30
0.0
 10
286.0261229220478
 20
352.8779041145717
 30
0.0
 10
285.841903964475
 20
352.8110140480858
 30
0.0
 10
285.6748029999999
 20
352.7145110000001
 30
0.0
 10
285.5077017061512
 20
352.6180077616973
 30
0.0
 10
285.3577184728829
 20
352.4918914250538
 30
0.0
 10
285.233972
 20
352.3438650000007
 30
0.0
 10
285.1119976060399
 20
352.197958348559
 30
0.0
 10
285.0155139195194
 20
352.0307646309739
 30
0.0
 10
284.9502599999996
 20
351.8521479999999
 30
0.0
 10
284.8840582031717
 20
351.6709367869262
 30
0.0
 10
284.8500000490685
 20
351.4779683920951
 30
0.0
 10
284.8500000000004
 20
351.2849999999999
 30
0.0
 10
284.8499999509313
 20
351.0920312779726
 30
0.0
 10
284.8840581233617
 20
350.8990625586812
 30
0.0
 10
284.9502599999996
 20
350.7178509999994
 30
0.0
 10
285.0155138866166
 20
350.5392343337626
 30
0.0
 10
285.1119974931771
 20
350.372040521308
 30
0.0
 10
285.233972
 20
350.2261340000005
 30
0.0
 10
285.3577184491132
 20
350.0781078723703
 30
0.0
 10
285.5077017984449
 20
349.9519920157782
 30
0.0
 10
285.6748029999999
 20
349.8554889999996
 30
0.0
 10
285.8419040588969
 20
349.7589860666085
 30
0.0
 10
286.0261229407888
 20
349.6920959234722
 30
0.0
 10
286.216152
 20
349.6588919999995
 30
0.0
 10
286.4034603534765
 20
349.626163467532
 30
0.0
 10
286.5964137030069
 20
349.6261634675375
 30
0.0
 10
286.783848
 20
349.6588919999995
 30
0.0
 10
286.9740048320928
 20
349.6920959234649
 30
0.0
 10
287.1584811156845
 20
349.7589860665794
 30
0.0
 10
287.3251970000001
 20
349.8554889999996
 30
0.0
 10
287.4919130266453
 20
349.9519920158073
 30
0.0
 10
287.64086862369
 20
350.0781078724831
 30
0.0
 10
287.766028
 20
350.2261340000005
 30
0.0
 10
287.8893952021217
 20
350.3720405211971
 30
0.0
 10
287.9896427870499
 20
350.5392343333478
 30
0.0
 10
288.0497400000004
 20
350.7178509999994
 30
0.0
 10
288.1107102882734
 20
350.8990625591014
 30
0.0
 10
288.130355144137
 20
351.0920312795497
 30
0.0
 10
288.1499999999996
 20
351.2849999999999
 30
0.0
  0
ENDBLK
  5
72
330
6F
100
AcDbEntity
  8
0
100
AcDbBlockEnd
  0
BLOCK
  5
76
330
74
100
AcDbEntity
  8
0
100
AcDbBlockBegin
  2
block 10
 70
     0
 10
0.0
 20
0.0
 30
0.0
  3
block 10
  1

  0
POLYLINE
  5
78
330
74
100
AcDbEntity
  8
0
 62
     7
420
 16777215
370
    25
100
AcDb2dPolyline
 66
     1
 10
0.0
 20
0.0
 30
0.0
  0
VERTEX
  5
79
330
78
100
AcDbEntity
  8
0
 62
     7
420
 16777215
370
    25
100
AcDbVertex
100
AcDb2dVertex
 10
253.5100000000002
 20
376.5
 30
0.0
  0
VERTEX
  5
7A
330
78
100
AcDbEntity
  8
0
 62
     7
420
 16777215
370
    25
100
AcDbVertex
100
AcDb2dVertex
 10
253.5100000000002
 20
376.5
 30
0.0
  0
SEQEND
  5
7B
330
78
100
AcDbEntity
  8
0
 62
     7
420
 16777215
370
    25
  0
ENDBLK
  5
77
330
74
100
AcDbEntity
  8
0
100
AcDbBlockEnd
  0
BLOCK
  5
7E
330
7C
100
AcDbEntity
  8
0
100
AcDbBlockBegin
  2
block 11
 70
     0
 10
0.0
 20
0.0
 30
0.0
  3
block 11
  1

  0
SPLINE
  5
80
330
7C
100
AcDbEntity
  8
0
 62
     7
420
 16777215
370
    25
100
AcDbSpline
210
0.0
220
0.0
230
1.0
 70
    11
 71
     3
 72
    59
 73
    55
 74
     0
 42
0.0000000001
 43
0.0000000001
 12
1.0
 22
0.0
 32
0.0
 13
1.0
 23
0.0
 33
0.0
 40
0.0
 40
0.0
 40
0.0
 40
0.0
 40
1.0
 40
1.0
 40
1.0
 40
2.0
 40
2.0
 40
2.0
 40
3.0
 40
3.0
 40
3.0
 40
4.0
 40
4.0
 40
4.0
 40
5.0
 40
5.0
 40
5.0
 40
6.0
 40
6.0
 40
6.0
 40
7.0
 40
7.0
 40
7.0
 40
8.0
 40
8.0
 40
8.0
 40
9.0
 40
9.0
 40
9.0
 40
10.0
 40
10.0
 40
10.0
 40
11.0
 40
11.0
 40
11.0
 40
12.0
 40
12.0
 40
12.0
 40
13.0
 40
13.0
 40
13.0
 40
14.0
 40
14.0
 40
14.0
 40
15.0
 40
15.0
 40
15.0
 40
16.0
 40
16.0
 40
16.0
 40
17.0
 40
17.0
 40
17.0
 40
18.0
 40
18.0
 40
18.0
 40
18.0
 10
253.5100000000002
 20
376.5
 30
0.0
 10
253.4903551441366
 20
376.6929687204502
 30
0.0
 10
253.4707102882739
 20
376.8859374409003
 30
0.0
 10
253.4097400000001
 20
377.0671490000004
 30
0.0
 10
253.3496427870505
 20
377.245765666652
 30
0.0
 10
253.2493952021214
 20
377.4129594788028
 30
0.0
 10
253.1260279999997
 20
377.5588659999994
 30
0.0
 10
253.0008686236897
 20
377.7068921275168
 30
0.0
 10
252.851913026645
 20
377.8330079841926
 30
0.0
 10
252.6851969999998
 20
377.9295110000003
 30
0.0
 10
252.5184811156842
 20
378.0260139334205
 30
0.0
 10
252.3340048320924
 20
378.092904076535
 30
0.0
 10
252.1438479999997
 20
378.1261080000004
 30
0.0
 10
251.9564137030065
 20
378.1588365324624
 30
0.0
 10
251.7634603534761
 20
378.1588365324678
 30
0.0
 10
251.5761519999996
 20
378.1261080000004
 30
0.0
 10
251.3861229407885
 20
378.0929040765277
 30
0.0
 10
251.2019040588966
 20
378.0260139333914
 30
0.0
 10
251.0348029999996
 20
377.9295110000003
 30
0.0
 10
250.8677017984455
 20
377.8330079842217
 30
0.0
 10
250.7177184491138
 20
377.7068921276295
 30
0.0
 10
250.5939719999997
 20
377.5588659999994
 30
0.0
 10
250.4719974931777
 20
377.4129594786918
 30
0.0
 10
250.3755138866172
 20
377.2457656662373
 30
0.0
 10
250.3102600000002
 20
377.0671490000004
 30
0.0
 10
250.2440581233614
 20
376.8859374413205
 30
0.0
 10
250.2099999509319
 20
376.6929687220272
 30
0.0
 10
250.21
 20
376.5
 30
0.0
 10
250.2100000490682
 20
376.3070316079047
 30
0.0
 10
250.2440582031713
 20
376.1140632130737
 30
0.0
 10
250.3102600000002
 20
375.9328519999999
 30
0.0
 10
250.3755139195191
 20
375.754235369026
 30
0.0
 10
250.4719976060396
 20
375.5870416514426
 30
0.0
 10
250.5939719999997
 20
375.4411350000009
 30
0.0
 10
250.7177184728835
 20
375.293108574946
 30
0.0
 10
250.8677017061518
 20
375.1669922383026
 30
0.0
 10
251.0348029999996
 20
375.0704889999997
 30
0.0
 10
251.2019039644747
 20
374.9739859519141
 30
0.0
 10
251.3861229220474
 20
374.9070958854281
 30
0.0
 10
251.5761519999996
 20
374.8738919999996
 30
0.0
 10
251.7634603719489
 20
374.8411635050306
 30
0.0
 10
251.956413684632
 20
374.8411635050234
 30
0.0
 10
252.1438479999997
 20
374.8738919999996
 30
0.0
 10
252.3340048507343
 20
374.9070958854336
 30
0.0
 10
252.518481209805
 20
374.973985951945
 30
0.0
 10
252.6851969999998
 20
375.0704889999997
 30
0.0
 10
252.8519131188086
 20
375.1669922382735
 30
0.0
 10
253.0008685987241
 20
375.2931085748314
 30
0.0
 10
253.1260279999997
 20
375.4411350000009
 30
0.0
 10
253.249395088882
 20
375.5870416515536
 30
0.0
 10
253.3496427502914
 20
375.7542353694407
 30
0.0
 10
253.4097400000001
 20
375.9328519999999
 30
0.0
 10
253.4707102213206
 20
376.1140632126535
 30
0.0
 10
253.4903551106599
 20
376.3070316063277
 30
0.0
 10
253.5100000000002
 20
376.5
 30
0.0
  0
ENDBLK
  5
7F
330
7C
100
AcDbEntity
  8
0
100
AcDbBlockEnd
  0
BLOCK
  5
83
330
81
100
AcDbEntity
  8
0
100
AcDbBlockBegin
  2
block 12
 70
     0
 10
0.0
 20
0.0
 30
0.0
  3
block 12
  1

  0
POLYLINE
  5
85
330
81
100
AcDbEntity
  8
0
 62
     7
420
 16777215
370
    25
100
AcDb2dPolyline
 66
     1
 10
0.0
 20
0.0
 30
0.0
  0
VERTEX
  5
86
330
85
100
AcDbEntity
  8
0
 62
     7
420
 16777215
370
    25
100
AcDbVertex
100
AcDb2dVertex
 10
253.5100000000002
 20
416.5
 30
0.0
  0
VERTEX
  5
87
330
85
100
AcDbEntity
  8
0
 62
     7
420
 16777215
370
    25
100
AcDbVertex
100
AcDb2dVertex
 10
253.5100000000002
 20
416.5
 30
0.0
  0
SEQEND
  5
88
330
85
100
AcDbEntity
  8
0
 62
     7
420
 16777215
370
    25
  0
ENDBLK
  5
84
330
81
100
AcDbEntity
  8
0
100
AcDbBlockEnd
  0
BLOCK
  5
8B
330
89
100
AcDbEntity
  8
0
100
AcDbBlockBegin
  2
block 13
 70
     0
 10
0.0
 20
0.0
 30
0.0
  3
block 13
  1

  0
SPLINE
  5
8D
330
89
100
AcDbEntity
  8
0
 62
     7
420
 16777215
370
    25
100
AcDbSpline
210
0.0
220
0.0
230
1.0
 70
    11
 71
     3
 72
    59
 73
    55
 74
     0
 42
0.0000000001
 43
0.0000000001
 12
1.0
 22
0.0
 32
0.0
 13
1.0
 23
0.0
 33
0.0
 40
0.0
 40
0.0
 40
0.0
 40
0.0
 40
1.0
 40
1.0
 40
1.0
 40
2.0
 40
2.0
 40
2.0
 40
3.0
 40
3.0
 40
3.0
 40
4.0
 40
4.0
 40
4.0
 40
5.0
 40
5.0
 40
5.0
 40
6.0
 40
6.0
 40
6.0
 40
7.0
 40
7.0
 40
7.0
 40
8.0
 40
8.0
 40
8.0
 40
9.0
 40
9.0
 40
9.0
 40
10.0
 40
10.0
 40
10.0
 40
11.0
 40
11.0
 40
11.0
 40
12.0
 40
12.0
 40
12.0
 40
13.0
 40
13.0
 40
13.0
 40
14.0
 40
14.0
 40
14.0
 40
15.0
 40
15.0
 40
15.0
 40
16.0
 40
16.0
 40
16.0
 40
17.0
 40
17.0
 40
17.0
 40
18.0
 40
18.0
 40
18.0
 40
18.0
 10
253.5100000000002
 20
416.5
 30
0.0
 10
253.4903551106599
 20
416.6929683936733
 30
0.0
 10
253.4707102213197
 20
416.8859367873465
 30
0.0
 10
253.4097400000001
 20
417.0671480000001
 30
0.0
 10
253.3496427502932
 20
417.2457646305593
 30
0.0
 10
253.2493950888866
 20
417.4129583484464
 30
0.0
 10
253.1260279999997
 20
417.558865
 30
0.0
 10
253.0008685987195
 20
417.7068914251677
 30
0.0
 10
252.8519131187904
 20
417.8330077617275
 30
0.0
 10
252.6851969999998
 20
417.9295110000003
 30
0.0
 10
252.5184812098232
 20
418.026014048055
 30
0.0
 10
252.3340048508016
 20
418.0929041145637
 30
0.0
 10
252.1438479999997
 20
418.1261080000004
 30
0.0
 10
251.9564136845647
 20
418.1588364949785
 30
0.0
 10
251.7634603717015
 20
418.1588364949785
 30
0.0
 10
251.5761519999996
 20
418.1261080000004
 30
0.0
 10
251.3861229222985
 20
418.0929041145637
 30
0.0
 10
251.2019039654188
 20
418.026014048055
 30
0.0
 10
251.0348030000005
 20
417.9295110000003
 30
0.0
 10
250.8677017052078
 20
417.8330077617275
 30
0.0
 10
250.7177184693592
 20
417.7068914251677
 30
0.0
 10
250.5939719999997
 20
417.558865
 30
0.0
 10
250.4719976095139
 20
417.4129583484464
 30
0.0
 10
250.3755139323985
 20
417.2457646305593
 30
0.0
 10
250.3102600000002
 20
417.0671480000001
 30
0.0
 10
250.2440581901055
 20
416.8859367873465
 30
0.0
 10
250.21
 20
416.6929683936733
 30
0.0
 10
250.21
 20
416.5
 30
0.0
 10
250.21
 20
416.3070316063267
 30
0.0
 10
250.2440581901055
 20
416.1140632126535
 30
0.0
 10
250.3102600000002
 20
415.9328519999999
 30
0.0
 10
250.3755139323985
 20
415.7542353694407
 30
0.0
 10
250.4719976095139
 20
415.5870416515536
 30
0.0
 10
250.5939719999997
 20
415.441135
 30
0.0
 10
250.7177184693592
 20
415.2931085748323
 30
0.0
 10
250.8677017052078
 20
415.1669922382725
 30
0.0
 10
251.0348030000005
 20
415.0704889999997
 30
0.0
 10
251.2019039654188
 20
414.973985951945
 30
0.0
 10
251.3861229222985
 20
414.9070958854363
 30
0.0
 10
251.5761519999996
 20
414.8738919999996
 30
0.0
 10
251.7634603717015
 20
414.8411635050215
 30
0.0
 10
251.9564136845647
 20
414.8411635050215
 30
0.0
 10
252.1438479999997
 20
414.8738919999996
 30
0.0
 10
252.3340048508026
 20
414.9070958854363
 30
0.0
 10
252.5184812098241
 20
414.973985951945
 30
0.0
 10
252.6851969999998
 20
415.0704889999997
 30
0.0
 10
252.8519131187904
 20
415.1669922382725
 30
0.0
 10
253.0008685987195
 20
415.2931085748323
 30
0.0
 10
253.1260279999997
 20
415.441135
 30
0.0
 10
253.2493950888866
 20
415.5870416515536
 30
0.0
 10
253.3496427502932
 20
415.7542353694407
 30
0.0
 10
253.4097400000001
 20
415.9328519999999
 30
0.0
 10
253.4707102213197
 20
416.1140632126535
 30
0.0
 10
253.4903551106599
 20
416.3070316063267
 30
0.0
 10
253.5100000000002
 20
416.5
 30
0.0
  0
ENDBLK
  5
8C
330
89
100
AcDbEntity
  8
0
100
AcDbBlockEnd
  0
BLOCK
  5
90
330
8E
100
AcDbEntity
  8
0
100
AcDbBlockBegin
  2
block 14
 70
     0
 10
0.0
 20
0.0
 30
0.0
  3
block 14
  1

  0
POLYLINE
  5
92
330
8E
100
AcDbEntity
  8
0
 62
     7
420
 16777215
370
    25
100
AcDb2dPolyline
 66
     1
 10
0.0
 20
0.0
 30
0.0
  0
VERTEX
  5
93
330
92
100
AcDbEntity
  8
0
 62
     7
420
 16777215
370
    25
100
AcDbVertex
100
AcDb2dVertex
 10
328.1499999999996
 20
441.7150000000001
 30
0.0
  0
VERTEX
  5
94
330
92
100
AcDbEntity
  8
0
 62
     7
420
 16777215
370
    25
100
AcDbVertex
100
AcDb2dVertex
 10
328.1499999999996
 20
441.7150000000001
 30
0.0
  0
SEQEND
  5
95
330
92
100
AcDbEntity
  8
0
 62
     7
420
 16777215
370
    25
  0
ENDBLK
  5
91
330
8E
100
AcDbEntity
  8
0
100
AcDbBlockEnd
  0
BLOCK
  5
98
330
96
100
AcDbEntity
  8
0
100
AcDbBlockBegin
  2
block 15
 70
     0
 10
0.0
 20
0.0
 30
0.0
  3
block 15
  1

  0
SPLINE
  5
9A
330
96
100
AcDbEntity
  8
0
 62
     7
420
 16777215
370
    25
100
AcDbSpline
210
0.0
220
0.0
230
1.0
 70
    11
 71
     3
 72
    59
 73
    55
 74
     0
 42
0.0000000001
 43
0.0000000001
 12
1.0
 22
0.0
 32
0.0
 13
1.0
 23
0.0
 33
0.0
 40
0.0
 40
0.0
 40
0.0
 40
0.0
 40
1.0
 40
1.0
 40
1.0
 40
2.0
 40
2.0
 40
2.0
 40
3.0
 40
3.0
 40
3.0
 40
4.0
 40
4.0
 40
4.0
 40
5.0
 40
5.0
 40
5.0
 40
6.0
 40
6.0
 40
6.0
 40
7.0
 40
7.0
 40
7.0
 40
8.0
 40
8.0
 40
8.0
 40
9.0
 40
9.0
 40
9.0
 40
10.0
 40
10.0
 40
10.0
 40
11.0
 40
11.0
 40
11.0
 40
12.0
 40
12.0
 40
12.0
 40
13.0
 40
13.0
 40
13.0
 40
14.0
 40
14.0
 40
14.0
 40
15.0
 40
15.0
 40
15.0
 40
16.0
 40
16.0
 40
16.0
 40
17.0
 40
17.0
 40
17.0
 40
18.0
 40
18.0
 40
18.0
 40
18.0
 10
328.1499999999996
 20
441.7150000000001
 30
0.0
 10
328.1303551106612
 20
441.9079683936734
 30
0.0
 10
328.1107102213209
 20
442.1009367873467
 30
0.0
 10
328.0497400000004
 20
442.2821480000002
 30
0.0
 10
327.9896427502918
 20
442.4607646305594
 30
0.0
 10
327.8893950888814
 20
442.6279583484466
 30
0.0
 10
327.766028
 20
442.7738650000001
 30
0.0
 10
327.6408685987244
 20
442.9218914251678
 30
0.0
 10
327.491913118809
 20
443.0480077617267
 30
0.0
 10
327.3251970000001
 20
443.1445110000004
 30
0.0
 10
327.1584812098063
 20
443.2410140480561
 30
0.0
 10
326.9740048507338
 20
443.3079041145656
 30
0.0
 10
326.7838479999991
 20
443.3411079999996
 30
0.0
 10
326.5964136846324
 20
443.3738364949759
 30
0.0
 10
326.4034603719501
 20
443.3738364949704
 30
0.0
 10
326.2161520000009
 20
443.3411079999996
 30
0.0
 10
326.0261229220469
 20
443.307904114572
 30
0.0
 10
325.8419039644759
 20
443.2410140480852
 30
0.0
 10
325.6748029999999
 20
443.1445110000004
 30
0.0
 10
325.5077017061521
 20
443.0480077616976
 30
0.0
 10
325.3577184728838
 20
442.921891425055
 30
0.0
 10
325.233972
 20
442.7738650000001
 30
0.0
 10
325.1119976060399
 20
442.6279583485584
 30
0.0
 10
325.0155139195194
 20
442.4607646309742
 30
0.0
 10
324.9502599999996
 20
442.2821480000002
 30
0.0
 10
324.8840582031717
 20
442.1009367869265
 30
0.0
 10
324.8500000490676
 20
441.9079683920954
 30
0.0
 10
324.8500000000004
 20
441.7150000000001
 30
0.0
 10
324.8499999509313
 20
441.522031277972
 30
0.0
 10
324.8840581233617
 20
441.3290625586806
 30
0.0
 10
324.9502599999996
 20
441.1478509999997
 30
0.0
 10
325.0155138866176
 20
440.9692343337629
 30
0.0
 10
325.1119974931771
 20
440.8020405213083
 30
0.0
 10
325.233972
 20
440.6561339999998
 30
0.0
 10
325.3577184491132
 20
440.5081078723706
 30
0.0
 10
325.5077017984459
 20
440.3819920157775
 30
0.0
 10
325.6748029999999
 20
440.2854889999999
 30
0.0
 10
325.841904058896
 20
440.1889860666088
 30
0.0
 10
326.0261229407879
 20
440.1220959234715
 30
0.0
 10
326.2161520000009
 20
440.0888919999998
 30
0.0
 10
326.4034603534765
 20
440.0561634675314
 30
0.0
 10
326.596413703006
 20
440.0561634675369
 30
0.0
 10
326.7838479999991
 20
440.0888919999998
 30
0.0
 10
326.9740048320928
 20
440.1220959234652
 30
0.0
 10
327.1584811156845
 20
440.1889860665797
 30
0.0
 10
327.3251970000001
 20
440.2854889999999
 30
0.0
 10
327.4919130266444
 20
440.3819920158076
 30
0.0
 10
327.64086862369
 20
440.5081078724834
 30
0.0
 10
327.766028
 20
440.6561339999998
 30
0.0
 10
327.8893952021208
 20
440.8020405211964
 30
0.0
 10
327.9896427870499
 20
440.9692343333481
 30
0.0
 10
328.0497400000004
 20
441.1478509999997
 30
0.0
 10
328.1107102882743
 20
441.3290625591007
 30
0.0
 10
328.130355144136
 20
441.52203127955
 30
0.0
 10
328.1499999999996
 20
441.7150000000001
 30
0.0
  0
ENDBLK
  5
99
330
96
100
AcDbEntity
  8
0
100
AcDbBlockEnd
  0
BLOCK
  5
9D
330
9B
100
AcDbEntity
  8
0
100
AcDbBlockBegin
  2
block 16
 70
     0
 10
0.0
 20
0.0
 30
0.0
  3
block 16
  1

  0
POLYLINE
  5
9F
330
9B
100
AcDbEntity
  8
0
 62
     7
420
 16777215
370
    25
100
AcDb2dPolyline
 66
     1
 10
0.0
 20
0.0
 30
0.0
  0
VERTEX
  5
A0
330
9F
100
AcDbEntity
  8
0
 62
     7
420
 16777215
370
    25
100
AcDbVertex
100
AcDb2dVertex
 10
288.1499999999996
 20
441.7150000000001
 30
0.0
  0
VERTEX
  5
A1
330
9F
100
AcDbEntity
  8
0
 62
     7
420
 16777215
370
    25
100
AcDbVertex
100
AcDb2dVertex
 10
288.1499999999996
 20
441.7150000000001
 30
0.0
  0
SEQEND
  5
A2
330
9F
100
AcDbEntity
  8
0
 62
     7
420
 16777215
370
    25
  0
ENDBLK
  5
9E
330
9B
100
AcDbEntity
  8
0
100
AcDbBlockEnd
  0
BLOCK
  5
A5
330
A3
100
AcDbEntity
  8
0
100
AcDbBlockBegin
  2
block 17
 70
     0
 10
0.0
 20
0.0
 30
0.0
  3
block 17
  1

  0
SPLINE
  5
A7
330
A3
100
AcDbEntity
  8
0
 62
     7
420
 16777215
370
    25
100
AcDbSpline
210
0.0
220
0.0
230
1.0
 70
    11
 71
     3
 72
    59
 73
    55
 74
     0
 42
0.0000000001
 43
0.0000000001
 12
1.0
 22
0.0
 32
0.0
 13
1.0
 23
0.0
 33
0.0
 40
0.0
 40
0.0
 40
0.0
 40
0.0
 40
1.0
 40
1.0
 40
1.0
 40
2.0
 40
2.0
 40
2.0
 40
3.0
 40
3.0
 40
3.0
 40
4.0
 40
4.0
 40
4.0
 40
5.0
 40
5.0
 40
5.0
 40
6.0
 40
6.0
 40
6.0
 40
7.0
 40
7.0
 40
7.0
 40
8.0
 40
8.0
 40
8.0
 40
9.0
 40
9.0
 40
9.0
 40
10.0
 40
10.0
 40
10.0
 40
11.0
 40
11.0
 40
11.0
 40
12.0
 40
12.0
 40
12.0
 40
13.0
 40
13.0
 40
13.0
 40
14.0
 40
14.0
 40
14.0
 40
15.0
 40
15.0
 40
15.0
 40
16.0
 40
16.0
 40
16.0
 40
17.0
 40
17.0
 40
17.0
 40
18.0
 40
18.0
 40
18.0
 40
18.0
 10
288.1499999999996
 20
441.7150000000001
 30
0.0
 10
288.1303551106603
 20
441.9079683936734
 30
0.0
 10
288.1107102213209
 20
442.1009367873467
 30
0.0
 10
288.0497400000004
 20
442.2821480000002
 30
0.0
 10
287.9896427502918
 20
442.4607646305594
 30
0.0
 10
287.8893950888814
 20
442.6279583484466
 30
0.0
 10
287.766028
 20
442.7738650000001
 30
0.0
 10
287.6408685987244
 20
442.9218914251678
 30
0.0
 10
287.491913118809
 20
443.0480077617267
 30
0.0
 10
287.3251970000001
 20
443.1445110000004
 30
0.0
 10
287.1584812098054
 20
443.2410140480561
 30
0.0
 10
286.9740048507347
 20
443.3079041145656
 30
0.0
 10
286.783848
 20
443.3411079999996
 30
0.0
 10
286.5964136846314
 20
443.3738364949759
 30
0.0
 10
286.4034603719492
 20
443.3738364949704
 30
0.0
 10
286.216152
 20
443.3411079999996
 30
0.0
 10
286.0261229220478
 20
443.307904114572
 30
0.0
 10
285.841903964475
 20
443.2410140480852
 30
0.0
 10
285.6748029999999
 20
443.1445110000004
 30
0.0
 10
285.5077017061512
 20
443.0480077616976
 30
0.0
 10
285.3577184728829
 20
442.921891425055
 30
0.0
 10
285.233972
 20
442.7738650000001
 30
0.0
 10
285.1119976060399
 20
442.6279583485584
 30
0.0
 10
285.0155139195194
 20
442.4607646309742
 30
0.0
 10
284.9502599999996
 20
442.2821480000002
 30
0.0
 10
284.8840582031717
 20
442.1009367869265
 30
0.0
 10
284.8500000490685
 20
441.9079683920954
 30
0.0
 10
284.8500000000004
 20
441.7150000000001
 30
0.0
 10
284.8499999509313
 20
441.522031277972
 30
0.0
 10
284.8840581233617
 20
441.3290625586806
 30
0.0
 10
284.9502599999996
 20
441.1478509999997
 30
0.0
 10
285.0155138866166
 20
440.9692343337629
 30
0.0
 10
285.1119974931771
 20
440.8020405213083
 30
0.0
 10
285.233972
 20
440.6561339999998
 30
0.0
 10
285.3577184491132
 20
440.5081078723706
 30
0.0
 10
285.5077017984449
 20
440.3819920157775
 30
0.0
 10
285.6748029999999
 20
440.2854889999999
 30
0.0
 10
285.8419040588969
 20
440.1889860666088
 30
0.0
 10
286.0261229407888
 20
440.1220959234715
 30
0.0
 10
286.216152
 20
440.0888919999998
 30
0.0
 10
286.4034603534765
 20
440.0561634675314
 30
0.0
 10
286.5964137030069
 20
440.0561634675369
 30
0.0
 10
286.783848
 20
440.0888919999998
 30
0.0
 10
286.9740048320928
 20
440.1220959234652
 30
0.0
 10
287.1584811156845
 20
440.1889860665797
 30
0.0
 10
287.3251970000001
 20
440.2854889999999
 30
0.0
 10
287.4919130266453
 20
440.3819920158076
 30
0.0
 10
287.64086862369
 20
440.5081078724834
 30
0.0
 10
287.766028
 20
440.6561339999998
 30
0.0
 10
287.8893952021217
 20
440.8020405211964
 30
0.0
 10
287.9896427870499
 20
440.9692343333481
 30
0.0
 10
288.0497400000004
 20
441.1478509999997
 30
0.0
 10
288.1107102882734
 20
441.3290625591007
 30
0.0
 10
288.130355144137
 20
441.52203127955
 30
0.0
 10
288.1499999999996
 20
441.7150000000001
 30
0.0
  0
ENDBLK
  5
A6
330
A3
100
AcDbEntity
  8
0
100
AcDbBlockEnd
  0
BLOCK
  5
AA
330
A8
100
AcDbEntity
  8
0
100
AcDbBlockBegin
  2
block 18
 70
     0
 10
0.0
 20
0.0
 30
0.0
  3
block 18
  1

  0
POLYLINE
  5
AC
330
A8
100
AcDbEntity
  8
0
 62
     7
420
 16777215
370
    25
100
AcDb2dPolyline
 66
     1
 10
0.0
 20
0.0
 30
0.0
  0
VERTEX
  5
AD
330
AC
100
AcDbEntity
  8
0
 62
     7
420
 16777215
370
    25
100
AcDbVertex
100
AcDb2dVertex
 10
364.4200000000001
 20
396.5
 30
0.0
  0
VERTEX
  5
AE
330
AC
100
AcDbEntity
  8
0
 62
     7
420
 16777215
370
    25
100
AcDbVertex
100
AcDb2dVertex
 10
364.4200000000001
 20
396.5
 30
0.0
  0
SEQEND
  5
AF
330
AC
100
AcDbEntity
  8
0
 62
     7
420
 16777215
370
    25
  0
ENDBLK
  5
AB
330
A8
100
AcDbEntity
  8
0
100
AcDbBlockEnd
  0
BLOCK
  5
B2
330
B0
100
AcDbEntity
  8
0
100
AcDbBlockBegin
  2
block 19
 70
     0
 10
0.0
 20
0.0
 30
0.0
  3
block 19
  1

  0
SPLINE
  5
B4
330
B0
100
AcDbEntity
  8
0
 62
     7
420
 16777215
370
    25
100
AcDbSpline
210
0.0
220
0.0
230
1.0
 70
    11
 71
     3
 72
    59
 73
    55
 74
     0
 42
0.0000000001
 43
0.0000000001
 12
1.0
 22
0.0
 32
0.0
 13
1.0
 23
0.0
 33
0.0
 40
0.0
 40
0.0
 40
0.0
 40
0.0
 40
1.0
 40
1.0
 40
1.0
 40
2.0
 40
2.0
 40
2.0
 40
3.0
 40
3.0
 40
3.0
 40
4.0
 40
4.0
 40
4.0
 40
5.0
 40
5.0
 40
5.0
 40
6.0
 40
6.0
 40
6.0
 40
7.0
 40
7.0
 40
7.0
 40
8.0
 40
8.0
 40
8.0
 40
9.0
 40
9.0
 40
9.0
 40
10.0
 40
10.0
 40
10.0
 40
11.0
 40
11.0
 40
11.0
 40
12.0
 40
12.0
 40
12.0
 40
13.0
 40
13.0
 40
13.0
 40
14.0
 40
14.0
 40
14.0
 40
15.0
 40
15.0
 40
15.0
 40
16.0
 40
16.0
 40
16.0
 40
17.0
 40
17.0
 40
17.0
 40
18.0
 40
18.0
 40
18.0
 40
18.0
 10
364.4200000000001
 20
396.5
 30
0.0
 10
364.3800726722329
 20
396.8917487236777
 30
0.0
 10
364.3401453444676
 20
397.2834974473553
 30
0.0
 10
364.2163309999996
 20
397.6513709999999
 30
0.0
 10
364.0942893386182
 20
398.0139776085971
 30
0.0
 10
363.8907455307362
 20
398.3533878065491
 30
0.0
 10
363.6402720000006
 20
398.649582
 30
0.0
 10
363.3861604723825
 20
398.9500782590185
 30
0.0
 10
363.0837460622934
 20
399.2060940169958
 30
0.0
 10
362.7452809999995
 20
399.4019950000002
 30
0.0
 10
362.4068156952817
 20
399.5978961233177
 30
0.0
 10
362.0322996867144
 20
399.7336823855485
 30
0.0
 10
361.6462530000008
 20
399.8010859999995
 30
0.0
 10
361.2657333071274
 20
399.867524603289
 30
0.0
 10
360.8740107398735
 20
399.8675245979302
 30
0.0
 10
360.4937470000004
 20
399.8010859999995
 30
0.0
 10
360.1079599839668
 20
399.7336823909855
 30
0.0
 10
359.7339670884412
 20
399.597896150739
 30
0.0
 10
359.3947189999999
 20
399.4019950000002
 30
0.0
 10
359.0554711545446
 20
399.2060939895746
 30
0.0
 10
358.7509680664025
 20
398.9500781547713
 30
0.0
 10
358.4997280000007
 20
398.649582
 30
0.0
 10
358.2520847137002
 20
398.3533877808459
 30
0.0
 10
358.05619032703
 20
398.0139776956321
 30
0.0
 10
357.9236679999995
 20
397.6513709999999
 30
0.0
 10
357.7892208341527
 20
397.283497573404
 30
0.0
 10
357.7200000096782
 20
396.8917487979797
 30
0.0
 10
357.7199999999993
 20
396.5
 30
0.0
 10
357.7199999903223
 20
396.1082512020203
 30
0.0
 10
357.789220795441
 20
395.7165023814832
 30
0.0
 10
357.9236679999995
 20
395.3486290000001
 30
0.0
 10
358.0561903651869
 20
394.986022348834
 30
0.0
 10
358.2520848464301
 20
394.6466123957471
 30
0.0
 10
358.4997280000007
 20
394.350418
 30
0.0
 10
358.7509680700168
 20
394.0499215006894
 30
0.0
 10
359.0554709864464
 20
393.7939050525529
 30
0.0
 10
359.3947189999999
 20
393.5980039999995
 30
0.0
 10
359.7339669707999
 20
393.4021029721353
 30
0.0
 10
360.1079600299654
 20
393.2663173247038
 30
0.0
 10
360.4937470000004
 20
393.1989140000005
 30
0.0
 10
360.874010805539
 20
393.1324756629165
 30
0.0
 10
361.2657332414692
 20
393.1324756574613
 30
0.0
 10
361.6462530000008
 20
393.1989140000005
 30
0.0
 10
362.0322996406321
 20
393.2663173302371
 30
0.0
 10
362.4068158125938
 20
393.4021030000476
 30
0.0
 10
362.7452809999995
 20
393.5980039999995
 30
0.0
 10
363.0837462300624
 20
393.7939050246405
 30
0.0
 10
363.3861604664853
 20
394.0499213945768
 30
0.0
 10
363.6402720000006
 20
394.350418
 30
0.0
 10
363.8907453986994
 20
394.6466123718837
 30
0.0
 10
364.0942893006613
 20
394.9860224426975
 30
0.0
 10
364.2163309999996
 20
395.3486290000001
 30
0.0
 10
364.3401453829774
 20
395.7165025006034
 30
0.0
 10
364.3800726914887
 20
396.1082512503017
 30
0.0
 10
364.4200000000001
 20
396.5
 30
0.0
  0
ENDBLK
  5
B3
330
B0
100
AcDbEntity
  8
0
100
AcDbBlockEnd
  0
BLOCK
  5
B7
330
B5
100
AcDbEntity
  8
0
100
AcDbBlockBegin
  2
block 20
 70
     0
 10
0.0
 20
0.0
 30
0.0
  3
block 20
  1

  0
POLYLINE
  5
B9
330
B5
100
AcDbEntity
  8
0
 62
     7
420
 16777215
370
    25
100
AcDb2dPolyline
 66
     1
 10
0.0
 20
0.0
 30
0.0
  0
VERTEX
  5
BA
330
B9
100
AcDbEntity
  8
0
 62
     7
420
 16777215
370
    25
100
AcDbVertex
100
AcDb2dVertex
 10
357.4500000000007
 20
356.8899999999994
 30
0.0
  0
VERTEX
  5
BB
330
B9
100
AcDbEntity
  8
0
 62
     7
420
 16777215
370
    25
100
AcDbVertex
100
AcDb2dVertex
 10
357.4500000000007
 20
356.8899999999994
 30
0.0
  0
SEQEND
  5
BC
330
B9
100
AcDbEntity
  8
0
 62
     7
420
 16777215
370
    25
  0
ENDBLK
  5
B8
330
B5
100
AcDbEntity
  8
0
100
AcDbBlockEnd
  0
BLOCK
  5
BF
330
BD
100
AcDbEntity
  8
0
100
AcDbBlockBegin
  2
block 21
 70
     0
 10
0.0
 20
0.0
 30
0.0
  3
block 21
  1

  0
SPLINE
  5
C1
330
BD
100
AcDbEntity
  8
0
 62
     7
420
 16777215
370
    25
100
AcDbSpline
210
0.0
220
0.0
230
1.0
 70
    11
 71
     3
 72
    59
 73
    55
 74
     0
 42
0.0000000001
 43
0.0000000001
 12
1.0
 22
0.0
 32
0.0
 13
1.0
 23
0.0
 33
0.0
 40
0.0
 40
0.0
 40
0.0
 40
0.0
 40
1.0
 40
1.0
 40
1.0
 40
2.0
 40
2.0
 40
2.0
 40
3.0
 40
3.0
 40
3.0
 40
4.0
 40
4.0
 40
4.0
 40
5.0
 40
5.0
 40
5.0
 40
6.0
 40
6.0
 40
6.0
 40
7.0
 40
7.0
 40
7.0
 40
8.0
 40
8.0
 40
8.0
 40
9.0
 40
9.0
 40
9.0
 40
10.0
 40
10.0
 40
10.0
 40
11.0
 40
11.0
 40
11.0
 40
12.0
 40
12.0
 40
12.0
 40
13.0
 40
13.0
 40
13.0
 40
14.0
 40
14.0
 40
14.0
 40
15.0
 40
15.0
 40
15.0
 40
16.0
 40
16.0
 40
16.0
 40
17.0
 40
17.0
 40
17.0
 40
18.0
 40
18.0
 40
18.0
 40
18.0
 10
357.4500000000007
 20
356.8899999999994
 30
0.0
 10
357.4100731859799
 20
357.2817488109904
 30
0.0
 10
357.370146371959
 20
357.6734976219814
 30
0.0
 10
357.2463320000006
 20
358.0413709999993
 30
0.0
 10
357.1242902404101
 20
358.4039776477512
 30
0.0
 10
356.9207457134944
 20
358.7433876033319
 30
0.0
 10
356.6702719999994
 20
359.0395819999994
 30
0.0
 10
356.416160257324
 20
359.3400785002432
 30
0.0
 10
356.1137461728777
 20
359.5960949476921
 30
0.0
 10
355.7752810000002
 20
359.7919959999999
 30
0.0
 10
355.436815869778
 20
359.9878970276186
 30
0.0
 10
355.0622996602142
 20
360.1236826752483
 30
0.0
 10
354.6762529999996
 20
360.1910860000007
 30
0.0
 10
354.2957332221667
 20
360.2575243371321
 30
0.0
 10
353.904010784443
 20
360.2575243424908
 30
0.0
 10
353.5237469999993
 20
360.1910860000007
 30
0.0
 10
353.1379600513665
 20
360.1236826698114
 30
0.0
 10
352.7639670371591
 20
359.9878970001973
 30
0.0
 10
352.4247190000006
 20
359.7919959999999
 30
0.0
 10
352.0854709200867
 20
359.5960949751134
 30
0.0
 10
351.78096782598
 20
359.3400786044913
 30
0.0
 10
351.5297279999995
 20
359.0395819999994
 30
0.0
 10
351.2820851943725
 20
358.7433876290361
 30
0.0
 10
351.0861914259076
 20
358.4039775607162
 30
0.0
 10
350.9536690000004
 20
358.0413709999993
 30
0.0
 10
350.8192216555017
 20
357.6734974959327
 30
0.0
 10
350.749999990323
 20
357.2817487366883
 30
0.0
 10
350.75
 20
356.8899999999994
 30
0.0
 10
350.750000009677
 20
356.4982512633123
 30
0.0
 10
350.8192216942116
 20
356.1065025491807
 30
0.0
 10
350.9536690000004
 20
355.7386289999995
 30
0.0
 10
351.0861913877507
 20
355.3760223948175
 30
0.0
 10
351.2820850616426
 20
355.0366121943698
 30
0.0
 10
351.5297279999995
 20
354.7404179999994
 30
0.0
 10
351.7809678223675
 20
354.4399217400496
 30
0.0
 10
352.0854710881849
 20
354.183905982758
 30
0.0
 10
352.4247190000006
 20
353.9880049999992
 30
0.0
 10
352.7639671548004
 20
353.7921038769273
 30
0.0
 10
353.1379600053679
 20
353.6563176145009
 30
0.0
 10
353.5237469999993
 20
353.5889139999999
 30
0.0
 10
353.9040107187775
 20
353.5224753966631
 30
0.0
 10
354.295733287825
 20
353.5224754021183
 30
0.0
 10
354.6762529999996
 20
353.5889139999999
 30
0.0
 10
355.0622997062965
 20
353.6563176089658
 30
0.0
 10
355.4368157524677
 20
353.7921038490149
 30
0.0
 10
355.7752810000002
 20
353.9880049999992
 30
0.0
 10
356.1137460051086
 20
354.1839060106704
 30
0.0
 10
356.416160263223
 20
354.4399218461622
 30
0.0
 10
356.6702719999994
 20
354.7404179999994
 30
0.0
 10
356.9207458455312
 20
355.0366122182331
 30
0.0
 10
357.1242902783688
 20
355.376022300954
 30
0.0
 10
357.2463320000006
 20
355.7386289999995
 30
0.0
 10
357.370146333451
 20
356.1065024300606
 30
0.0
 10
357.4100731667259
 20
356.4982512150309
 30
0.0
 10
357.4500000000007
 20
356.8899999999994
 30
0.0
  0
ENDBLK
  5
C0
330
BD
100
AcDbEntity
  8
0
100
AcDbBlockEnd
  0
BLOCK
  5
C4
330
C2
100
AcDbEntity
  8
0
100
AcDbBlockBegin
  2
block 22
 70
     0
 10
0.0
 20
0.0
 30
0.0
  3
block 22
  1

  0
POLYLINE
  5
C6
330
C2
100
AcDbEntity
  8
0
 62
     7
420
 16777215
370
    25
100
AcDb2dPolyline
 66
     1
 10
0.0
 20
0.0
 30
0.0
  0
VERTEX
  5
C7
330
C6
100
AcDbEntity
  8
0
 62
     7
420
 16777215
370
    25
100
AcDbVertex
100
AcDb2dVertex
 10
357.4500000000007
 20
436.1099999999997
 30
0.0
  0
VERTEX
  5
C8
330
C6
100
AcDbEntity
  8
0
 62
     7
420
 16777215
370
    25
100
AcDbVertex
100
AcDb2dVertex
 10
357.4500000000007
 20
436.1099999999997
 30
0.0
  0
SEQEND
  5
C9
330
C6
100
AcDbEntity
  8
0
 62
     7
420
 16777215
370
    25
  0
ENDBLK
  5
C5
330
C2
100
AcDbEntity
  8
0
100
AcDbBlockEnd
  0
BLOCK
  5
CC
330
CA
100
AcDbEntity
  8
0
100
AcDbBlockBegin
  2
block 23
 70
     0
 10
0.0
 20
0.0
 30
0.0
  3
block 23
  1

  0
SPLINE
  5
CE
330
CA
100
AcDbEntity
  8
0
 62
     7
420
 16777215
370
    25
100
AcDbSpline
210
0.0
220
0.0
230
1.0
 70
    11
 71
     3
 72
    59
 73
    55
 74
     0
 42
0.0000000001
 43
0.0000000001
 12
1.0
 22
0.0
 32
0.0
 13
1.0
 23
0.0
 33
0.0
 40
0.0
 40
0.0
 40
0.0
 40
0.0
 40
1.0
 40
1.0
 40
1.0
 40
2.0
 40
2.0
 40
2.0
 40
3.0
 40
3.0
 40
3.0
 40
4.0
 40
4.0
 40
4.0
 40
5.0
 40
5.0
 40
5.0
 40
6.0
 40
6.0
 40
6.0
 40
7.0
 40
7.0
 40
7.0
 40
8.0
 40
8.0
 40
8.0
 40
9.0
 40
9.0
 40
9.0
 40
10.0
 40
10.0
 40
10.0
 40
11.0
 40
11.0
 40
11.0
 40
12.0
 40
12.0
 40
12.0
 40
13.0
 40
13.0
 40
13.0
 40
14.0
 40
14.0
 40
14.0
 40
15.0
 40
15.0
 40
15.0
 40
16.0
 40
16.0
 40
16.0
 40
17.0
 40
17.0
 40
17.0
 40
18.0
 40
18.0
 40
18.0
 40
18.0
 10
357.4500000000007
 20
436.1099999999997
 30
0.0
 10
357.410073166724
 20
436.50174878497
 30
0.0
 10
357.3701463334492
 20
436.8934975699394
 30
0.0
 10
357.2463320000006
 20
437.2613709999996
 30
0.0
 10
357.1242902783688
 20
437.6239776990469
 30
0.0
 10
356.9207458455312
 20
437.9633877817678
 30
0.0
 10
356.6702719999994
 20
438.2595819999997
 30
0.0
 10
356.4161602632212
 20
438.5600781538369
 30
0.0
 10
356.113746005105
 20
438.8160939893241
 30
0.0
 10
355.7752810000002
 20
439.0119949999998
 30
0.0
 10
355.4368157524696
 20
439.2078961509887
 30
0.0
 10
355.062299706311
 20
439.3436823910515
 30
0.0
 10
354.6762529999996
 20
439.4110860000001
 30
0.0
 10
354.2957332878123
 20
439.4775245978644
 30
0.0
 10
353.9040107187284
 20
439.4775246032714
 30
0.0
 10
353.5237469999993
 20
439.4110860000001
 30
0.0
 10
353.137960005417
 20
439.3436823855664
 30
0.0
 10
352.7639671549859
 20
439.2078961233228
 30
0.0
 10
352.4247190000006
 20
439.0119949999998
 30
0.0
 10
352.0854710879994
 20
438.816094016991
 30
0.0
 10
351.7809678216727
 20
438.5600782590163
 30
0.0
 10
351.5297279999995
 20
438.2595819999997
 30
0.0
 10
351.2820850623266
 20
437.9633878065506
 30
0.0
 10
351.08619139029
 20
437.6239776085977
 30
0.0
 10
350.9536690000004
 20
437.2613709999996
 30
0.0
 10
350.8192216916359
 20
436.893497447355
 30
0.0
 10
350.75
 20
436.5017487236773
 30
0.0
 10
350.75
 20
436.1099999999997
 30
0.0
 10
350.75
 20
435.7182512763229
 30
0.0
 10
350.8192216916359
 20
435.3265025526453
 30
0.0
 10
350.9536690000004
 20
434.9586289999997
 30
0.0
 10
351.08619139029
 20
434.5960223914026
 30
0.0
 10
351.2820850623266
 20
434.2566121934497
 30
0.0
 10
351.5297279999995
 20
433.9604179999997
 30
0.0
 10
351.7809678216727
 20
433.659921740983
 30
0.0
 10
352.0854710879994
 20
433.4039059830093
 30
0.0
 10
352.4247190000006
 20
433.2080050000004
 30
0.0
 10
352.7639671549859
 20
433.0121038766774
 30
0.0
 10
353.137960005417
 20
432.8763176144339
 30
0.0
 10
353.5237469999993
 20
432.8089140000002
 30
0.0
 10
353.9040107187284
 20
432.7424753967289
 30
0.0
 10
354.2957332878123
 20
432.7424754021358
 30
0.0
 10
354.6762529999996
 20
432.8089140000002
 30
0.0
 10
355.062299706311
 20
432.8763176089487
 30
0.0
 10
355.4368157524696
 20
433.0121038490106
 30
0.0
 10
355.7752810000002
 20
433.2080050000004
 30
0.0
 10
356.113746005105
 20
433.4039060106752
 30
0.0
 10
356.4161602632212
 20
433.6599218461633
 30
0.0
 10
356.6702719999994
 20
433.9604179999997
 30
0.0
 10
356.9207458455312
 20
434.2566122182325
 30
0.0
 10
357.1242902783688
 20
434.5960223009533
 30
0.0
 10
357.2463320000006
 20
434.9586289999997
 30
0.0
 10
357.3701463334492
 20
435.3265024300599
 30
0.0
 10
357.410073166724
 20
435.7182512150303
 30
0.0
 10
357.4500000000007
 20
436.1099999999997
 30
0.0
  0
ENDBLK
  5
CD
330
CA
100
AcDbEntity
  8
0
100
AcDbBlockEnd
  0
BLOCK
  5
D1
330
CF
100
AcDbEntity
  8
0
100
AcDbBlockBegin
  2
block 24
 70
     0
 10
0.0
 20
0.0
 30
0.0
  3
block 24
  1

  0
POLYLINE
  5
D3
330
CF
100
AcDbEntity
  8
0
 62
     7
420
 16777215
370
    25
100
AcDb2dPolyline
 66
     1
 10
0.0
 20
0.0
 30
0.0
  0
VERTEX
  5
D4
330
D3
100
AcDbEntity
  8
0
 62
     7
420
 16777215
370
    25
100
AcDbVertex
100
AcDb2dVertex
 10
262.25
 20
436.1099999999997
 30
0.0
  0
VERTEX
  5
D5
330
D3
100
AcDbEntity
  8
0
 62
     7
420
 16777215
370
    25
100
AcDbVertex
100
AcDb2dVertex
 10
262.25
 20
436.1099999999997
 30
0.0
  0
SEQEND
  5
D6
330
D3
100
AcDbEntity
  8
0
 62
     7
420
 16777215
370
    25
  0
ENDBLK
  5
D2
330
CF
100
AcDbEntity
  8
0
100
AcDbBlockEnd
  0
BLOCK
  5
D9
330
D7
100
AcDbEntity
  8
0
100
AcDbBlockBegin
  2
block 25
 70
     0
 10
0.0
 20
0.0
 30
0.0
  3
block 25
  1

  0
SPLINE
  5
DB
330
D7
100
AcDbEntity
  8
0
 62
     7
420
 16777215
370
    25
100
AcDbSpline
210
0.0
220
0.0
230
1.0
 70
    11
 71
     3
 72
    59
 73
    55
 74
     0
 42
0.0000000001
 43
0.0000000001
 12
1.0
 22
0.0
 32
0.0
 13
1.0
 23
0.0
 33
0.0
 40
0.0
 40
0.0
 40
0.0
 40
0.0
 40
1.0
 40
1.0
 40
1.0
 40
2.0
 40
2.0
 40
2.0
 40
3.0
 40
3.0
 40
3.0
 40
4.0
 40
4.0
 40
4.0
 40
5.0
 40
5.0
 40
5.0
 40
6.0
 40
6.0
 40
6.0
 40
7.0
 40
7.0
 40
7.0
 40
8.0
 40
8.0
 40
8.0
 40
9.0
 40
9.0
 40
9.0
 40
10.0
 40
10.0
 40
10.0
 40
11.0
 40
11.0
 40
11.0
 40
12.0
 40
12.0
 40
12.0
 40
13.0
 40
13.0
 40
13.0
 40
14.0
 40
14.0
 40
14.0
 40
15.0
 40
15.0
 40
15.0
 40
16.0
 40
16.0
 40
16.0
 40
17.0
 40
17.0
 40
17.0
 40
18.0
 40
18.0
 40
18.0
 40
18.0
 10
262.25
 20
436.1099999999997
 30
0.0
 10
262.2100726722338
 20
436.5017487236773
 30
0.0
 10
262.1701453444675
 20
436.893497447355
 30
0.0
 10
262.0463309999996
 20
437.2613709999996
 30
0.0
 10
261.9242893386181
 20
437.6239776085977
 30
0.0
 10
261.7207455307371
 20
437.9633878065506
 30
0.0
 10
261.4702719999996
 20
438.2595819999997
 30
0.0
 10
261.2161604723815
 20
438.5600782590163
 30
0.0
 10
260.9137460622906
 20
438.816094016991
 30
0.0
 10
260.5752810000004
 20
439.0119949999998
 30
0.0
 10
260.2368156952853
 20
439.2078961233228
 30
0.0
 10
259.862299686728
 20
439.3436823855664
 30
0.0
 10
259.4762529999998
 20
439.4110860000001
 30
0.0
 10
259.0957333071137
 20
439.4775246032714
 30
0.0
 10
258.7040107398234
 20
439.4775245978644
 30
0.0
 10
258.3237470000004
 20
439.4110860000001
 30
0.0
 10
257.9379599840158
 20
439.3436823910515
 30
0.0
 10
257.5639670886267
 20
439.2078961509887
 30
0.0
 10
257.2247189999998
 20
439.0119949999998
 30
0.0
 10
256.8854711543581
 20
438.8160939893241
 30
0.0
 10
256.5809680657067
 20
438.5600781538369
 30
0.0
 10
256.3297279999997
 20
438.2595819999997
 30
0.0
 10
256.082084714385
 20
437.9633877817678
 30
0.0
 10
255.886190329571
 20
437.6239776990469
 30
0.0
 10
255.7536680000003
 20
437.2613709999996
 30
0.0
 10
255.6192208315751
 20
436.8934975699394
 30
0.0
 10
255.5500000000002
 20
436.50174878497
 30
0.0
 10
255.5500000000002
 20
436.1099999999997
 30
0.0
 10
255.5500000000002
 20
435.7182512150303
 30
0.0
 10
255.6192208315751
 20
435.3265024300599
 30
0.0
 10
255.7536680000003
 20
434.9586289999997
 30
0.0
 10
255.886190329571
 20
434.5960223009533
 30
0.0
 10
256.082084714385
 20
434.2566122182325
 30
0.0
 10
256.3297279999997
 20
433.9604179999997
 30
0.0
 10
256.5809680657067
 20
433.6599218461633
 30
0.0
 10
256.8854711543581
 20
433.4039060106752
 30
0.0
 10
257.2247189999998
 20
433.2080050000004
 30
0.0
 10
257.5639670886267
 20
433.0121038490106
 30
0.0
 10
257.9379599840158
 20
432.8763176089487
 30
0.0
 10
258.3237470000004
 20
432.8089140000002
 30
0.0
 10
258.7040107398234
 20
432.7424754021358
 30
0.0
 10
259.0957333071137
 20
432.7424753967289
 30
0.0
 10
259.4762529999998
 20
432.8089140000002
 30
0.0
 10
259.862299686728
 20
432.8763176144339
 30
0.0
 10
260.2368156952853
 20
433.0121038766774
 30
0.0
 10
260.5752810000004
 20
433.2080050000004
 30
0.0
 10
260.9137460622906
 20
433.4039059830093
 30
0.0
 10
261.2161604723815
 20
433.659921740983
 30
0.0
 10
261.4702719999996
 20
433.9604179999997
 30
0.0
 10
261.7207455307371
 20
434.2566121934497
 30
0.0
 10
261.9242893386181
 20
434.5960223914026
 30
0.0
 10
262.0463309999996
 20
434.9586289999997
 30
0.0
 10
262.1701453444675
 20
435.3265025526453
 30
0.0
 10
262.2100726722338
 20
435.7182512763229
 30
0.0
 10
262.25
 20
436.1099999999997
 30
0.0
  0
ENDBLK
  5
DA
330
D7
100
AcDbEntity
  8
0
100
AcDbBlockEnd
  0
BLOCK
  5
DE
330
DC
100
AcDbEntity
  8
0
100
AcDbBlockBegin
  2
block 26
 70
     0
 10
0.0
 20
0.0
 30
0.0
  3
block 26
  1

  0
SPLINE
  5
E0
330
DC
100
AcDbEntity
  8
0
 62
     7
420
 16777215
370
    25
100
AcDbSpline
210
0.0
220
0.0
230
1.0
 70
     8
 71
     3
 72
    14
 73
    10
 74
     0
 42
0.0000000001
 43
0.0000000001
 12
1.0
 22
0.0
 32
0.0
 13
1.0
 23
0.0
 33
0.0
 40
0.0
 40
0.0
 40
0.0
 40
0.0
 40
1.0
 40
1.0
 40
1.0
 40
2.0
 40
2.0
 40
2.0
 40
3.0
 40
3.0
 40
3.0
 40
3.0
 10
262.0
 20
449.5
 30
0.0
 10
258.933548016671
 20
449.0186595897976
 30
0.0
 10
255.867096033342
 20
448.5373191795961
 30
0.0
 10
253.1674149999999
 20
447.110737
 30
0.0
 10
250.5478056179709
 20
445.7264667785366
 30
0.0
 10
248.2735332214634
 20
443.4521943820291
 30
0.0
 10
246.889263
 20
440.8325850000001
 30
0.0
 10
245.4626808204039
 20
438.1329039666571
 30
0.0
 10
244.9813404102024
 20
435.066451983329
 30
0.0
 10
244.5
 20
432.0
 30
0.0
  0
ENDBLK
  5
DF
330
DC
100
AcDbEntity
  8
0
100
AcDbBlockEnd
  0
BLOCK
  5
E3
330
E1
100
AcDbEntity
  8
0
100
AcDbBlockBegin
  2
block 27
 70
     0
 10
0.0
 20
0.0
 30
0.0
  3
block 27
  1

  0
POLYLINE
  5
E5
330
E1
100
AcDbEntity
  8
0
 62
     7
420
 16777215
370
    25
100
AcDb2dPolyline
 66
     1
 10
0.0
 20
0.0
 30
0.0
  0
VERTEX
  5
E6
330
E5
100
AcDbEntity
  8
0
 62
     7
420
 16777215
370
    25
100
AcDbVertex
100
AcDb2dVertex
 10
244.5
 20
361.0
 30
0.0
  0
VERTEX
  5
E7
330
E5
100
AcDbEntity
  8
0
 62
     7
420
 16777215
370
    25
100
AcDbVertex
100
AcDb2dVertex
 10
244.5
 20
417.5
 30
0.0
  0
VERTEX
  5
E8
330
E5
100
AcDbEntity
  8
0
 62
     7
420
 16777215
370
    25
100
AcDbVertex
100
AcDb2dVertex
 10
244.5
 20
432.0
 30
0.0
  0
SEQEND
  5
E9
330
E5
100
AcDbEntity
  8
0
 62
     7
420
 16777215
370
    25
  0
ENDBLK
  5
E4
330
E1
100
AcDbEntity
  8
0
100
AcDbBlockEnd
  0
BLOCK
  5
EC
330
EA
100
AcDbEntity
  8
0
100
AcDbBlockBegin
  2
block 28
 70
     0
 10
0.0
 20
0.0
 30
0.0
  3
block 28
  1

  0
POLYLINE
  5
EE
330
EA
100
AcDbEntity
  8
0
 62
     7
420
 16777215
370
    25
100
AcDb2dPolyline
 66
     1
 10
0.0
 20
0.0
 30
0.0
  0
VERTEX
  5
EF
330
EE
100
AcDbEntity
  8
0
 62
     7
420
 16777215
370
    25
100
AcDbVertex
100
AcDb2dVertex
 10
262.0
 20
343.5
 30
0.0
  0
VERTEX
  5
F0
330
EE
100
AcDbEntity
  8
0
 62
     7
420
 16777215
370
    25
100
AcDbVertex
100
AcDb2dVertex
 10
351.0
 20
343.5
 30
0.0
  0
SEQEND
  5
F1
330
EE
100
AcDbEntity
  8
0
 62
     7
420
 16777215
370
    25
  0
ENDBLK
  5
ED
330
EA
100
AcDbEntity
  8
0
100
AcDbBlockEnd
  0
BLOCK
  5
F4
330
F2
100
AcDbEntity
  8
0
100
AcDbBlockBegin
  2
block 29
 70
     0
 10
0.0
 20
0.0
 30
0.0
  3
block 29
  1

  0
SPLINE
  5
F6
330
F2
100
AcDbEntity
  8
0
 62
     7
420
 16777215
370
    25
100
AcDbSpline
210
0.0
220
0.0
230
1.0
 70
     8
 71
     3
 72
    14
 73
    10
 74
     0
 42
0.0000000001
 43
0.0000000001
 12
1.0
 22
0.0
 32
0.0
 13
1.0
 23
0.0
 33
0.0
 40
0.0
 40
0.0
 40
0.0
 40
0.0
 40
1.0
 40
1.0
 40
1.0
 40
2.0
 40
2.0
 40
2.0
 40
3.0
 40
3.0
 40
3.0
 40
3.0
 10
244.5
 20
361.0
 30
0.0
 10
244.9813404102024
 20
357.9335480166719
 30
0.0
 10
245.4626808204039
 20
354.867096033342
 30
0.0
 10
246.889263
 20
352.1674149999999
 30
0.0
 10
248.2735332214634
 20
349.5478056179709
 30
0.0
 10
250.5478056179709
 20
347.2735332214634
 30
0.0
 10
253.1674149999999
 20
345.8892630000009
 30
0.0
 10
255.8670960333429
 20
344.4626808204048
 30
0.0
 10
258.933548016671
 20
343.9813404102024
 30
0.0
 10
262.0
 20
343.5
 30
0.0
  0
ENDBLK
  5
F5
330
F2
100
AcDbEntity
  8
0
100
AcDbBlockEnd
  0
BLOCK
  5
F9
330
F7
100
AcDbEntity
  8
0
100
AcDbBlockBegin
  2
block 30
 70
     0
 10
0.0
 20
0.0
 30
0.0
  3
block 30
  1

  0
SPLINE
  5
FB
330
F7
100
AcDbEntity
  8
0
 62
     7
420
 16777215
370
    25
100
AcDbSpline
210
0.0
220
0.0
230
1.0
 70
     8
 71
     3
 72
    14
 73
    10
 74
     0
 42
0.0000000001
 43
0.0000000001
 12
1.0
 22
0.0
 32
0.0
 13
1.0
 23
0.0
 33
0.0
 40
0.0
 40
0.0
 40
0.0
 40
0.0
 40
1.0
 40
1.0
 40
1.0
 40
2.0
 40
2.0
 40
2.0
 40
3.0
 40
3.0
 40
3.0
 40
3.0
 10
351.0
 20
343.5
 30
0.0
 10
354.0664519833281
 20
343.9813404102024
 30
0.0
 10
357.132903966658
 20
344.4626808204048
 30
0.0
 10
359.8325850000001
 20
345.8892630000009
 30
0.0
 10
362.4521943820291
 20
347.2735332214634
 30
0.0
 10
364.7264667785366
 20
349.5478056179709
 30
0.0
 10
366.1107369999991
 20
352.1674149999999
 30
0.0
 10
367.5373191795952
 20
354.867096033342
 30
0.0
 10
368.0186595897976
 20
357.9335480166719
 30
0.0
 10
368.5
 20
361.0
 30
0.0
  0
ENDBLK
  5
FA
330
F7
100
AcDbEntity
  8
0
100
AcDbBlockEnd
  0
BLOCK
  5
FE
330
FC
100
AcDbEntity
  8
0
100
AcDbBlockBegin
  2
block 31
 70
     0
 10
0.0
 20
0.0
 30
0.0
  3
block 31
  1

  0
POLYLINE
  5
100
330
FC
100
AcDbEntity
  8
0
 62
     7
420
 16777215
370
    25
100
AcDb2dPolyline
 66
     1
 10
0.0
 20
0.0
 30
0.0
  0
VERTEX
  5
101
330
100
100
AcDbEntity
  8
0
 62
     7
420
 16777215
370
    25
100
AcDbVertex
100
AcDb2dVertex
 10
368.5
 20
432.0
 30
0.0
  0
VERTEX
  5
102
330
100
100
AcDbEntity
  8
0
 62
     7
420
 16777215
370
    25
100
AcDbVertex
100
AcDb2dVertex
 10
368.5
 20
417.5
 30
0.0
  0
VERTEX
  5
103
330
100
100
AcDbEntity
  8
0
 62
     7
420
 16777215
370
    25
100
AcDbVertex
100
AcDb2dVertex
 10
368.5
 20
361.0
 30
0.0
  0
SEQEND
  5
104
330
100
100
AcDbEntity
  8
0
 62
     7
420
 16777215
370
    25
  0
ENDBLK
  5
FF
330
FC
100
AcDbEntity
  8
0
100
AcDbBlockEnd
  0
BLOCK
  5
107
330
105
100
AcDbEntity
  8
0
100
AcDbBlockBegin
  2
block 32
 70
     0
 10
0.0
 20
0.0
 30
0.0
  3
block 32
  1

  0
POLYLINE
  5
109
330
105
100
AcDbEntity
  8
0
 62
     7
420
 16777215
370
    25
100
AcDb2dPolyline
 66
     1
 10
0.0
 20
0.0
 30
0.0
  0
VERTEX
  5
10A
330
109
100
AcDbEntity
  8
0
 62
     7
420
 16777215
370
    25
100
AcDbVertex
100
AcDb2dVertex
 10
351.0
 20
449.5
 30
0.0
  0
VERTEX
  5
10B
330
109
100
AcDbEntity
  8
0
 62
     7
420
 16777215
370
    25
100
AcDbVertex
100
AcDb2dVertex
 10
262.0
 20
449.5
 30
0.0
  0
SEQEND
  5
10C
330
109
100
AcDbEntity
  8
0
 62
     7
420
 16777215
370
    25
  0
ENDBLK
  5
108
330
105
100
AcDbEntity
  8
0
100
AcDbBlockEnd
  0
BLOCK
  5
10F
330
10D
100
AcDbEntity
  8
0
100
AcDbBlockBegin
  2
block 33
 70
     0
 10
0.0
 20
0.0
 30
0.0
  3
block 33
  1

  0
POLYLINE
  5
111
330
10D
100
AcDbEntity
  8
0
 62
     7
420
 16777215
370
    25
100
AcDb2dPolyline
 66
     1
 10
0.0
 20
0.0
 30
0.0
  0
VERTEX
  5
112
330
111
100
AcDbEntity
  8
0
 62
     7
420
 16777215
370
    25
100
AcDbVertex
100
AcDb2dVertex
 10
261.8599999999997
 20
421.7950000000001
 30
0.0
  0
VERTEX
  5
113
330
111
100
AcDbEntity
  8
0
 62
     7
420
 16777215
370
    25
100
AcDbVertex
100
AcDb2dVertex
 10
261.8599999999997
 20
371.2049999999999
 30
0.0
  0
SEQEND
  5
114
330
111
100
AcDbEntity
  8
0
 62
     7
420
 16777215
370
    25
  0
ENDBLK
  5
110
330
10D
100
AcDbEntity
  8
0
100
AcDbBlockEnd
  0
BLOCK
  5
117
330
115
100
AcDbEntity
  8
0
100
AcDbBlockBegin
  2
block 34
 70
     0
 10
0.0
 20
0.0
 30
0.0
  3
block 34
  1

  0
SPLINE
  5
119
330
115
100
AcDbEntity
  8
0
 62
     7
420
 16777215
370
    25
100
AcDbSpline
210
0.0
220
0.0
230
1.0
 70
     8
 71
     3
 72
    14
 73
    10
 74
     0
 42
0.0000000001
 43
0.0000000001
 12
1.0
 22
0.0
 32
0.0
 13
1.0
 23
0.0
 33
0.0
 40
0.0
 40
0.0
 40
0.0
 40
0.0
 40
1.0
 40
1.0
 40
1.0
 40
2.0
 40
2.0
 40
2.0
 40
3.0
 40
3.0
 40
3.0
 40
3.0
 10
368.5
 20
432.0
 30
0.0
 10
368.0186595897976
 20
435.066451983329
 30
0.0
 10
367.5373191795952
 20
438.132903966658
 30
0.0
 10
366.1107369999991
 20
440.8325850000001
 30
0.0
 10
364.7264667785366
 20
443.4521943820291
 30
0.0
 10
362.4521943820291
 20
445.7264667785366
 30
0.0
 10
359.8325850000001
 20
447.110737
 30
0.0
 10
357.132903966658
 20
448.5373191795961
 30
0.0
 10
354.0664519833281
 20
449.0186595897976
 30
0.0
 10
351.0
 20
449.5
 30
0.0
  0
ENDBLK
  5
118
330
115
100
AcDbEntity
  8
0
100
AcDbBlockEnd
  0
BLOCK
  5
11C
330
11A
100
AcDbEntity
  8
0
100
AcDbBlockBegin
  2
block 35
 70
     0
 10
0.0
 20
0.0
 30
0.0
  3
block 35
  1

  0
POLYLINE
  5
11E
330
11A
100
AcDbEntity
  8
0
 62
     7
420
 16777215
370
    25
100
AcDb2dPolyline
 66
     1
 10
0.0
 20
0.0
 30
0.0
  0
VERTEX
  5
11F
330
11E
100
AcDbEntity
  8
0
 62
     7
420
 16777215
370
    25
100
AcDbVertex
100
AcDb2dVertex
 10
341.2199999999993
 20
431.7150000000001
 30
0.0
  0
VERTEX
  5
120
330
11E
100
AcDbEntity
  8
0
 62
     7
420
 16777215
370
    25
100
AcDbVertex
100
AcDb2dVertex
 10
271.7799999999997
 20
431.7150000000001
 30
0.0
  0
SEQEND
  5
121
330
11E
100
AcDbEntity
  8
0
 62
     7
420
 16777215
370
    25
  0
ENDBLK
  5
11D
330
11A
100
AcDbEntity
  8
0
100
AcDbBlockEnd
  0
BLOCK
  5
124
330
122
100
AcDbEntity
  8
0
100
AcDbBlockBegin
  2
block 36
 70
     0
 10
0.0
 20
0.0
 30
0.0
  3
block 36
  1

  0
SPLINE
  5
126
330
122
100
AcDbEntity
  8
0
 62
     7
420
 16777215
370
    25
100
AcDbSpline
210
0.0
220
0.0
230
1.0
 70
     8
 71
     3
 72
    23
 73
    19
 74
     0
 42
0.0000000001
 43
0.0000000001
 12
1.0
 22
0.0
 32
0.0
 13
1.0
 23
0.0
 33
0.0
 40
0.0
 40
0.0
 40
0.0
 40
0.0
 40
1.0
 40
1.0
 40
1.0
 40
2.0
 40
2.0
 40
2.0
 40
3.0
 40
3.0
 40
3.0
 40
4.0
 40
4.0
 40
4.0
 40
5.0
 40
5.0
 40
5.0
 40
6.0
 40
6.0
 40
6.0
 40
6.0
 10
271.7799999999997
 20
431.7150000000001
 30
0.0
 10
270.9118688099043
 20
431.6488705743986
 30
0.0
 10
270.0437376198088
 20
431.5827411487971
 30
0.0
 10
269.2055300000002
 20
431.3751350000002
 30
0.0
 10
268.3742587660618
 20
431.1692468460324
 30
0.0
 10
267.5724179009349
 20
430.8242137938505
 30
0.0
 10
266.826247
 20
430.389604
 30
0.0
 10
266.0738497115062
 20
429.9513676254155
 30
0.0
 10
265.3780553342303
 20
429.4220533342304
 30
0.0
 10
264.7655009999999
 20
428.809499
 30
0.0
 10
264.1529466657694
 20
428.1969446657695
 30
0.0
 10
263.6236323745852
 20
427.5011502884936
 30
0.0
 10
263.1853959999999
 20
426.7487529999999
 30
0.0
 10
262.7507862061493
 20
426.0025820990659
 30
0.0
 10
262.4057531539675
 20
425.2007412339381
 30
0.0
 10
262.1998650000005
 20
424.3694699999996
 30
0.0
 10
261.9922588512027
 20
423.531262380191
 30
0.0
 10
261.9261294256012
 20
422.6631311900956
 30
0.0
 10
261.8599999999997
 20
421.7950000000001
 30
0.0
  0
ENDBLK
  5
125
330
122
100
AcDbEntity
  8
0
100
AcDbBlockEnd
  0
BLOCK
  5
129
330
127
100
AcDbEntity
  8
0
100
AcDbBlockBegin
  2
block 37
 70
     0
 10
0.0
 20
0.0
 30
0.0
  3
block 37
  1

  0
POLYLINE
  5
12B
330
127
100
AcDbEntity
  8
0
 62
     7
420
 16777215
370
    25
100
AcDb2dPolyline
 66
     1
 10
0.0
 20
0.0
 30
0.0
  0
VERTEX
  5
12C
330
12B
100
AcDbEntity
  8
0
 62
     7
420
 16777215
370
    25
100
AcDbVertex
100
AcDb2dVertex
 10
351.1399999999994
 20
371.2049999999999
 30
0.0
  0
VERTEX
  5
12D
330
12B
100
AcDbEntity
  8
0
 62
     7
420
 16777215
370
    25
100
AcDbVertex
100
AcDb2dVertex
 10
351.1399999999994
 20
421.7950000000001
 30
0.0
  0
SEQEND
  5
12E
330
12B
100
AcDbEntity
  8
0
 62
     7
420
 16777215
370
    25
  0
ENDBLK
  5
12A
330
127
100
AcDbEntity
  8
0
100
AcDbBlockEnd
  0
BLOCK
  5
131
330
12F
100
AcDbEntity
  8
0
100
AcDbBlockBegin
  2
block 38
 70
     0
 10
0.0
 20
0.0
 30
0.0
  3
block 38
  1

  0
SPLINE
  5
133
330
12F
100
AcDbEntity
  8
0
 62
     7
420
 16777215
370
    25
100
AcDbSpline
210
0.0
220
0.0
230
1.0
 70
     8
 71
     3
 72
    23
 73
    19
 74
     0
 42
0.0000000001
 43
0.0000000001
 12
1.0
 22
0.0
 32
0.0
 13
1.0
 23
0.0
 33
0.0
 40
0.0
 40
0.0
 40
0.0
 40
0.0
 40
1.0
 40
1.0
 40
1.0
 40
2.0
 40
2.0
 40
2.0
 40
3.0
 40
3.0
 40
3.0
 40
4.0
 40
4.0
 40
4.0
 40
5.0
 40
5.0
 40
5.0
 40
6.0
 40
6.0
 40
6.0
 40
6.0
 10
351.1399999999994
 20
421.7950000000001
 30
0.0
 10
351.0738705743988
 20
422.6631311900956
 30
0.0
 10
351.0077411487982
 20
423.531262380191
 30
0.0
 10
350.8001349999995
 20
424.3694699999996
 30
0.0
 10
350.5942468460325
 20
425.2007412339381
 30
0.0
 10
350.2492137938516
 20
426.002582099065
 30
0.0
 10
349.8146039999992
 20
426.7487529999999
 30
0.0
 10
349.3763676254148
 20
427.5011502884936
 30
0.0
 10
348.8470533342297
 20
428.1969446657695
 30
0.0
 10
348.2344990000001
 20
428.809499
 30
0.0
 10
347.6219446657706
 20
429.4220533342304
 30
0.0
 10
346.9261502884947
 20
429.9513676254155
 30
0.0
 10
346.1737529999991
 20
430.389604
 30
0.0
 10
345.4275820990661
 20
430.8242137938505
 30
0.0
 10
344.6257412339382
 20
431.1692468460324
 30
0.0
 10
343.7944700000007
 20
431.3751350000002
 30
0.0
 10
342.9562623801903
 20
431.5827411487971
 30
0.0
 10
342.0881311900957
 20
431.6488705743986
 30
0.0
 10
341.2199999999993
 20
431.7150000000001
 30
0.0
  0
ENDBLK
  5
132
330
12F
100
AcDbEntity
  8
0
100
AcDbBlockEnd
  0
BLOCK
  5
136
330
134
100
AcDbEntity
  8
0
100
AcDbBlockBegin
  2
block 39
 70
     0
 10
0.0
 20
0.0
 30
0.0
  3
block 39
  1

  0
POLYLINE
  5
138
330
134
100
AcDbEntity
  8
0
 62
     7
420
 16777215
370
    25
100
AcDb2dPolyline
 66
     1
 10
0.0
 20
0.0
 30
0.0
  0
VERTEX
  5
139
330
138
100
AcDbEntity
  8
0
 62
     7
420
 16777215
370
    25
100
AcDbVertex
100
AcDb2dVertex
 10
271.7799999999997
 20
361.2849999999999
 30
0.0
  0
VERTEX
  5
13A
330
138
100
AcDbEntity
  8
0
 62
     7
420
 16777215
370
    25
100
AcDbVertex
100
AcDb2dVertex
 10
341.2199999999993
 20
361.2849999999999
 30
0.0
  0
SEQEND
  5
13B
330
138
100
AcDbEntity
  8
0
 62
     7
420
 16777215
370
    25
  0
ENDBLK
  5
137
330
134
100
AcDbEntity
  8
0
100
AcDbBlockEnd
  0
BLOCK
  5
13E
330
13C
100
AcDbEntity
  8
0
100
AcDbBlockBegin
  2
block 40
 70
     0
 10
0.0
 20
0.0
 30
0.0
  3
block 40
  1

  0
SPLINE
  5
140
330
13C
100
AcDbEntity
  8
0
 62
     7
420
 16777215
370
    25
100
AcDbSpline
210
0.0
220
0.0
230
1.0
 70
     8
 71
     3
 72
    23
 73
    19
 74
     0
 42
0.0000000001
 43
0.0000000001
 12
1.0
 22
0.0
 32
0.0
 13
1.0
 23
0.0
 33
0.0
 40
0.0
 40
0.0
 40
0.0
 40
0.0
 40
1.0
 40
1.0
 40
1.0
 40
2.0
 40
2.0
 40
2.0
 40
3.0
 40
3.0
 40
3.0
 40
4.0
 40
4.0
 40
4.0
 40
5.0
 40
5.0
 40
5.0
 40
6.0
 40
6.0
 40
6.0
 40
6.0
 10
341.2199999999993
 20
361.2849999999999
 30
0.0
 10
342.08813124277
 20
361.3511289128528
 30
0.0
 10
342.9562624855407
 20
361.4172578257076
 30
0.0
 10
343.7944700000007
 20
361.6248639999994
 30
0.0
 10
344.6257412948798
 20
361.8307522202231
 30
0.0
 10
345.4275820538151
 20
362.1757859234094
 30
0.0
 10
346.1737529999991
 20
362.610396
 30
0.0
 10
346.926150222318
 20
363.0486325945622
 30
0.0
 10
347.6219447042204
 20
363.5779467042194
 30
0.0
 10
348.2344990000001
 20
364.1905009999991
 30
0.0
 10
348.8470532957799
 20
364.8030552957789
 30
0.0
 10
349.3763674054371
 20
365.4988497776812
 30
0.0
 10
349.8146039999992
 20
366.2512470000001
 30
0.0
 10
350.2492140765899
 20
366.9974179461842
 30
0.0
 10
350.594247779778
 20
367.7992587051212
 30
0.0
 10
350.8001359999998
 20
368.6305300000004
 30
0.0
 10
351.0077421742935
 20
369.4687375144586
 30
0.0
 10
351.0738710871465
 20
370.3368687572292
 30
0.0
 10
351.1399999999994
 20
371.2049999999999
 30
0.0
  0
ENDBLK
  5
13F
330
13C
100
AcDbEntity
  8
0
100
AcDbBlockEnd
  0
BLOCK
  5
143
330
141
100
AcDbEntity
  8
0
100
AcDbBlockBegin
  2
block 41
 70
     0
 10
0.0
 20
0.0
 30
0.0
  3
block 41
  1

  0
SPLINE
  5
145
330
141
100
AcDbEntity
  8
0
 62
     7
420
 16777215
370
    25
100
AcDbSpline
210
0.0
220
0.0
230
1.0
 70
     8
 71
     3
 72
    23
 73
    19
 74
     0
 42
0.0000000001
 43
0.0000000001
 12
1.0
 22
0.0
 32
0.0
 13
1.0
 23
0.0
 33
0.0
 40
0.0
 40
0.0
 40
0.0
 40
0.0
 40
1.0
 40
1.0
 40
1.0
 40
2.0
 40
2.0
 40
2.0
 40
3.0
 40
3.0
 40
3.0
 40
4.0
 40
4.0
 40
4.0
 40
5.0
 40
5.0
 40
5.0
 40
6.0
 40
6.0
 40
6.0
 40
6.0
 10
261.8599999999997
 20
371.2049999999999
 30
0.0
 10
261.9261289128535
 20
370.3368687572292
 30
0.0
 10
261.9922578257074
 20
369.4687375144586
 30
0.0
 10
262.1998640000002
 20
368.6305300000004
 30
0.0
 10
262.4057522202229
 20
367.7992587051212
 30
0.0
 10
262.7507859234101
 20
366.9974179461842
 30
0.0
 10
263.1853959999999
 20
366.2512470000001
 30
0.0
 10
263.6236325945629
 20
365.4988497776812
 30
0.0
 10
264.1529467042201
 20
364.8030552957789
 30
0.0
 10
264.7655009999999
 20
364.1905009999991
 30
0.0
 10
265.3780552957796
 20
363.5779467042194
 30
0.0
 10
266.073849777682
 20
363.0486325945622
 30
0.0
 10
266.826247
 20
362.610396
 30
0.0
 10
267.5724179461849
 20
362.1757859234094
 30
0.0
 10
268.3742587051202
 20
361.8307522202231
 30
0.0
 10
269.2055300000002
 20
361.6248639999994
 30
0.0
 10
270.0437375144593
 20
361.4172578257076
 30
0.0
 10
270.91186875723
 20
361.3511289128528
 30
0.0
 10
271.7799999999997
 20
361.2849999999999
 30
0.0
  0
ENDBLK
  5
144
330
141
100
AcDbEntity
  8
0
100
AcDbBlockEnd
  0
BLOCK
  5
148
330
146
100
AcDbEntity
  8
0
100
AcDbBlockBegin
  2
block 42
 70
     0
 10
0.0
 20
0.0
 30
0.0
  3
block 42
  1

  0
POLYLINE
  5
14A
330
146
100
AcDbEntity
  8
0
 62
     7
420
 16777215
370
    25
100
AcDb2dPolyline
 66
     1
 10
0.0
 20
0.0
 30
0.0
  0
VERTEX
  5
14B
330
14A
100
AcDbEntity
  8
0
 62
     7
420
 16777215
370
    25
100
AcDbVertex
100
AcDb2dVertex
 10
309.8500000000004
 20
441.0699999999997
 30
0.0
  0
VERTEX
  5
14C
330
14A
100
AcDbEntity
  8
0
 62
     7
420
 16777215
370
    25
100
AcDbVertex
100
AcDb2dVertex
 10
309.8500000000004
 20
441.0699999999997
 30
0.0
  0
SEQEND
  5
14D
330
14A
100
AcDbEntity
  8
0
 62
     7
420
 16777215
370
    25
  0
ENDBLK
  5
149
330
146
100
AcDbEntity
  8
0
100
AcDbBlockEnd
  0
BLOCK
  5
150
330
14E
100
AcDbEntity
  8
0
100
AcDbBlockBegin
  2
block 43
 70
     0
 10
0.0
 20
0.0
 30
0.0
  3
block 43
  1

  0
SPLINE
  5
152
330
14E
100
AcDbEntity
  8
0
 62
     7
420
 16777215
370
    25
100
AcDbSpline
210
0.0
220
0.0
230
1.0
 70
    11
 71
     3
 72
    59
 73
    55
 74
     0
 42
0.0000000001
 43
0.0000000001
 12
1.0
 22
0.0
 32
0.0
 13
1.0
 23
0.0
 33
0.0
 40
0.0
 40
0.0
 40
0.0
 40
0.0
 40
1.0
 40
1.0
 40
1.0
 40
2.0
 40
2.0
 40
2.0
 40
3.0
 40
3.0
 40
3.0
 40
4.0
 40
4.0
 40
4.0
 40
5.0
 40
5.0
 40
5.0
 40
6.0
 40
6.0
 40
6.0
 40
7.0
 40
7.0
 40
7.0
 40
8.0
 40
8.0
 40
8.0
 40
9.0
 40
9.0
 40
9.0
 40
10.0
 40
10.0
 40
10.0
 40
11.0
 40
11.0
 40
11.0
 40
12.0
 40
12.0
 40
12.0
 40
13.0
 40
13.0
 40
13.0
 40
14.0
 40
14.0
 40
14.0
 40
15.0
 40
15.0
 40
15.0
 40
16.0
 40
16.0
 40
16.0
 40
17.0
 40
17.0
 40
17.0
 40
18.0
 40
18.0
 40
18.0
 40
18.0
 10
309.8500000000004
 20
441.0699999999997
 30
0.0
 10
309.8099745525942
 20
441.4616641782486
 30
0.0
 10
309.7699491051881
 20
441.8533283564966
 30
0.0
 10
309.6460729999999
 20
442.221106
 30
0.0
 10
309.5239697900688
 20
442.583620067945
 30
0.0
 10
309.3203988620717
 20
442.9229264291216
 30
0.0
 10
309.0699229999991
 20
443.2190259999998
 30
0.0
 10
308.8158104016984
 20
443.5194247317959
 30
0.0
 10
308.5134209268963
 20
443.7753528994508
 30
0.0
 10
308.1749999999993
 20
443.9711850000003
 30
0.0
 10
307.8365791109791
 20
444.1670170786319
 30
0.0
 10
307.4621267779294
 20
444.3027531036096
 30
0.0
 10
307.0761500000008
 20
444.370132
 30
0.0
 10
306.6956967851438
 20
444.4365466632935
 30
0.0
 10
306.3040466089424
 20
444.4365466632935
 30
0.0
 10
305.9238500000001
 20
444.370132
 30
0.0
 10
305.5381335534848
 20
444.3027531036096
 30
0.0
 10
305.1642056628561
 20
444.1670170786319
 30
0.0
 10
304.8249999999998
 20
443.9711850000003
 30
0.0
 10
304.4857942991812
 20
443.7753528994508
 30
0.0
 10
304.1813108339074
 20
443.5194247317959
 30
0.0
 10
303.930077
 20
443.2190259999998
 30
0.0
 10
303.6824387028437
 20
442.9229264291216
 30
0.0
 10
303.486536777832
 20
442.583620067945
 30
0.0
 10
303.3539270000001
 20
442.221106
 30
0.0
 10
303.2193917752766
 20
441.8533283564966
 30
0.0
 10
303.1499999999996
 20
441.4616641782486
 30
0.0
 10
303.1499999999996
 20
441.0699999999997
 30
0.0
 10
303.1499999999996
 20
440.6783358217517
 30
0.0
 10
303.2193917752766
 20
440.2866716435037
 30
0.0
 10
303.3539270000001
 20
439.9188940000004
 30
0.0
 10
303.486536777832
 20
439.5563799320544
 30
0.0
 10
303.6824387028437
 20
439.2170735708787
 30
0.0
 10
303.930077
 20
438.9209739999997
 30
0.0
 10
304.1813108339074
 20
438.6205752682035
 30
0.0
 10
304.4857942991812
 20
438.3646471005486
 30
0.0
 10
304.8249999999998
 20
438.168815
 30
0.0
 10
305.1642056628561
 20
437.9729829213684
 30
0.0
 10
305.5381335534848
 20
437.8372468963908
 30
0.0
 10
305.9238500000001
 20
437.7698680000003
 30
0.0
 10
306.3040466089424
 20
437.7034533367068
 30
0.0
 10
306.6956967851438
 20
437.7034533367068
 30
0.0
 10
307.0761500000008
 20
437.7698680000003
 30
0.0
 10
307.4621267779294
 20
437.8372468963908
 30
0.0
 10
307.8365791109791
 20
437.9729829213684
 30
0.0
 10
308.1749999999993
 20
438.168815
 30
0.0
 10
308.5134209268963
 20
438.3646471005486
 30
0.0
 10
308.8158104016984
 20
438.6205752682035
 30
0.0
 10
309.0699229999991
 20
438.9209739999997
 30
0.0
 10
309.3203988620717
 20
439.2170735708787
 30
0.0
 10
309.5239697900688
 20
439.5563799320544
 30
0.0
 10
309.6460729999999
 20
439.9188940000004
 30
0.0
 10
309.7699491051881
 20
440.2866716435037
 30
0.0
 10
309.8099745525942
 20
440.6783358217517
 30
0.0
 10
309.8500000000004
 20
441.0699999999997
 30
0.0
  0
ENDBLK
  5
151
330
14E
100
AcDbEntity
  8
0
100
AcDbBlockEnd
  0
BLOCK
  5
155
330
153
100
AcDbEntity
  8
0
100
AcDbBlockBegin
  2
block 44
 70
     0
 10
0.0
 20
0.0
 30
0.0
  3
block 44
  1

  0
POLYLINE
  5
157
330
153
100
AcDbEntity
  8
0
 62
     7
420
 16777215
370
    25
100
AcDb2dPolyline
 66
     1
 10
0.0
 20
0.0
 30
0.0
  0
VERTEX
  5
158
330
157
100
AcDbEntity
  8
0
 62
     7
420
 16777215
370
    25
100
AcDbVertex
100
AcDb2dVertex
 10
309.8500000000004
 20
351.9300000000003
 30
0.0
  0
VERTEX
  5
159
330
157
100
AcDbEntity
  8
0
 62
     7
420
 16777215
370
    25
100
AcDbVertex
100
AcDb2dVertex
 10
309.8500000000004
 20
351.9300000000003
 30
0.0
  0
SEQEND
  5
15A
330
157
100
AcDbEntity
  8
0
 62
     7
420
 16777215
370
    25
  0
ENDBLK
  5
156
330
153
100
AcDbEntity
  8
0
100
AcDbBlockEnd
  0
BLOCK
  5
15D
330
15B
100
AcDbEntity
  8
0
100
AcDbBlockBegin
  2
block 45
 70
     0
 10
0.0
 20
0.0
 30
0.0
  3
block 45
  1

  0
SPLINE
  5
15F
330
15B
100
AcDbEntity
  8
0
 62
     7
420
 16777215
370
    25
100
AcDbSpline
210
0.0
220
0.0
230
1.0
 70
    11
 71
     3
 72
    59
 73
    55
 74
     0
 42
0.0000000001
 43
0.0000000001
 12
1.0
 22
0.0
 32
0.0
 13
1.0
 23
0.0
 33
0.0
 40
0.0
 40
0.0
 40
0.0
 40
0.0
 40
1.0
 40
1.0
 40
1.0
 40
2.0
 40
2.0
 40
2.0
 40
3.0
 40
3.0
 40
3.0
 40
4.0
 40
4.0
 40
4.0
 40
5.0
 40
5.0
 40
5.0
 40
6.0
 40
6.0
 40
6.0
 40
7.0
 40
7.0
 40
7.0
 40
8.0
 40
8.0
 40
8.0
 40
9.0
 40
9.0
 40
9.0
 40
10.0
 40
10.0
 40
10.0
 40
11.0
 40
11.0
 40
11.0
 40
12.0
 40
12.0
 40
12.0
 40
13.0
 40
13.0
 40
13.0
 40
14.0
 40
14.0
 40
14.0
 40
15.0
 40
15.0
 40
15.0
 40
16.0
 40
16.0
 40
16.0
 40
17.0
 40
17.0
 40
17.0
 40
18.0
 40
18.0
 40
18.0
 40
18.0
 10
309.8500000000004
 20
351.9300000000003
 30
0.0
 10
309.8099745525942
 20
352.3216641782492
 30
0.0
 10
309.7699491051881
 20
352.7133283564963
 30
0.0
 10
309.6460729999999
 20
353.0811059999996
 30
0.0
 10
309.5239697900688
 20
353.4436200679447
 30
0.0
 10
309.3203988620717
 20
353.7829264291213
 30
0.0
 10
309.0699229999991
 20
354.0790259999994
 30
0.0
 10
308.8158104016984
 20
354.3794247317965
 30
0.0
 10
308.5134209268963
 20
354.6353528994514
 30
0.0
 10
308.1749999999993
 20
354.8311849999991
 30
0.0
 10
307.8365791109791
 20
355.0270170786316
 30
0.0
 10
307.4621267779294
 20
355.1627531036102
 30
0.0
 10
307.0761500000008
 20
355.2301320000006
 30
0.0
 10
306.6956967851438
 20
355.2965466632941
 30
0.0
 10
306.3040466089424
 20
355.2965466632941
 30
0.0
 10
305.9238500000001
 20
355.2301320000006
 30
0.0
 10
305.5381335534848
 20
355.1627531036102
 30
0.0
 10
305.1642056628561
 20
355.0270170786316
 30
0.0
 10
304.8249999999998
 20
354.8311849999991
 30
0.0
 10
304.4857942991812
 20
354.6353528994514
 30
0.0
 10
304.1813108339074
 20
354.3794247317965
 30
0.0
 10
303.930077
 20
354.0790259999994
 30
0.0
 10
303.6824387028437
 20
353.7829264291213
 30
0.0
 10
303.486536777832
 20
353.4436200679447
 30
0.0
 10
303.3539270000001
 20
353.0811059999996
 30
0.0
 10
303.2193917752766
 20
352.7133283564963
 30
0.0
 10
303.1499999999996
 20
352.3216641782492
 30
0.0
 10
303.1499999999996
 20
351.9300000000003
 30
0.0
 10
303.1499999999996
 20
351.5383358217514
 30
0.0
 10
303.2193917752766
 20
351.1466716435043
 30
0.0
 10
303.3539270000001
 20
350.7788939999991
 30
0.0
 10
303.486536777832
 20
350.416379932054
 30
0.0
 10
303.6824387028437
 20
350.0770735708775
 30
0.0
 10
303.930077
 20
349.7809739999993
 30
0.0
 10
304.1813108339074
 20
349.4805752682041
 30
0.0
 10
304.4857942991812
 20
349.2246471005492
 30
0.0
 10
304.8249999999998
 20
349.0288149999997
 30
0.0
 10
305.1642056628561
 20
348.832982921369
 30
0.0
 10
305.5381335534848
 20
348.6972468963904
 30
0.0
 10
305.9238500000001
 20
348.629868
 30
0.0
 10
306.3040466089424
 20
348.5634533367065
 30
0.0
 10
306.6956967851438
 20
348.5634533367065
 30
0.0
 10
307.0761500000008
 20
348.629868
 30
0.0
 10
307.4621267779294
 20
348.6972468963904
 30
0.0
 10
307.8365791109791
 20
348.832982921369
 30
0.0
 10
308.1749999999993
 20
349.0288149999997
 30
0.0
 10
308.5134209268963
 20
349.2246471005492
 30
0.0
 10
308.8158104016984
 20
349.4805752682041
 30
0.0
 10
309.0699229999991
 20
349.7809739999993
 30
0.0
 10
309.3203988620717
 20
350.0770735708775
 30
0.0
 10
309.5239697900688
 20
350.416379932054
 30
0.0
 10
309.6460729999999
 20
350.7788939999991
 30
0.0
 10
309.7699491051881
 20
351.1466716435043
 30
0.0
 10
309.8099745525942
 20
351.5383358217514
 30
0.0
 10
309.8500000000004
 20
351.9300000000003
 30
0.0
  0
ENDBLK
  5
15E
330
15B
100
AcDbEntity
  8
0
100
AcDbBlockEnd
  0
BLOCK
  5
162
330
160
100
AcDbEntity
  8
0
100
AcDbBlockBegin
  2
block 46
 70
     0
 10
0.0
 20
0.0
 30
0.0
  3
block 46
  1

  0
POLYLINE
  5
164
330
160
100
AcDbEntity
  8
0
 62
     7
420
 16777215
370
    25
100
AcDb2dPolyline
 66
     1
 10
0.0
 20
0.0
 30
0.0
  0
VERTEX
  5
165
330
164
100
AcDbEntity
  8
0
 62
     7
420
 16777215
370
    25
100
AcDbVertex
100
AcDb2dVertex
 10
262.25
 20
356.8899999999994
 30
0.0
  0
VERTEX
  5
166
330
164
100
AcDbEntity
  8
0
 62
     7
420
 16777215
370
    25
100
AcDbVertex
100
AcDb2dVertex
 10
262.25
 20
356.8899999999994
 30
0.0
  0
SEQEND
  5
167
330
164
100
AcDbEntity
  8
0
 62
     7
420
 16777215
370
    25
  0
ENDBLK
  5
163
330
160
100
AcDbEntity
  8
0
100
AcDbBlockEnd
  0
BLOCK
  5
16A
330
168
100
AcDbEntity
  8
0
100
AcDbBlockBegin
  2
block 47
 70
     0
 10
0.0
 20
0.0
 30
0.0
  3
block 47
  1

  0
SPLINE
  5
16C
330
168
100
AcDbEntity
  8
0
 62
     7
420
 16777215
370
    25
100
AcDbSpline
210
0.0
220
0.0
230
1.0
 70
    11
 71
     3
 72
    59
 73
    55
 74
     0
 42
0.0000000001
 43
0.0000000001
 12
1.0
 22
0.0
 32
0.0
 13
1.0
 23
0.0
 33
0.0
 40
0.0
 40
0.0
 40
0.0
 40
0.0
 40
1.0
 40
1.0
 40
1.0
 40
2.0
 40
2.0
 40
2.0
 40
3.0
 40
3.0
 40
3.0
 40
4.0
 40
4.0
 40
4.0
 40
5.0
 40
5.0
 40
5.0
 40
6.0
 40
6.0
 40
6.0
 40
7.0
 40
7.0
 40
7.0
 40
8.0
 40
8.0
 40
8.0
 40
9.0
 40
9.0
 40
9.0
 40
10.0
 40
10.0
 40
10.0
 40
11.0
 40
11.0
 40
11.0
 40
12.0
 40
12.0
 40
12.0
 40
13.0
 40
13.0
 40
13.0
 40
14.0
 40
14.0
 40
14.0
 40
15.0
 40
15.0
 40
15.0
 40
16.0
 40
16.0
 40
16.0
 40
17.0
 40
17.0
 40
17.0
 40
18.0
 40
18.0
 40
18.0
 40
18.0
 10
262.25
 20
356.8899999999994
 30
0.0
 10
262.2100726914887
 20
357.2817487496977
 30
0.0
 10
262.1701453829764
 20
357.673497499396
 30
0.0
 10
262.0463309999996
 20
358.0413709999993
 30
0.0
 10
261.9242893006603
 20
358.4039775573019
 30
0.0
 10
261.7207453986994
 20
358.7433876281157
 30
0.0
 10
261.4702720000005
 20
359.0395819999994
 30
0.0
 10
261.2161604664843
 20
359.3400786054244
 30
0.0
 10
260.9137462300623
 20
359.5960949753589
 30
0.0
 10
260.5752810000004
 20
359.7919959999999
 30
0.0
 10
260.2368158125928
 20
359.9878969999518
 30
0.0
 10
259.862299640632
 20
360.1236826697623
 30
0.0
 10
259.4762529999998
 20
360.1910860000007
 30
0.0
 10
259.0957332414691
 20
360.2575243425381
 30
0.0
 10
258.704010805538
 20
360.2575243370829
 30
0.0
 10
258.3237470000004
 20
360.1910860000007
 30
0.0
 10
257.9379600299644
 20
360.1236826752975
 30
0.0
 10
257.5639669707998
 20
359.9878970278642
 30
0.0
 10
257.2247189999998
 20
359.7919959999999
 30
0.0
 10
256.8854709864463
 20
359.5960949474465
 30
0.0
 10
256.5809680700158
 20
359.34007849931
 30
0.0
 10
256.3297279999997
 20
359.0395819999994
 30
0.0
 10
256.08208484643
 20
358.7433876042523
 30
0.0
 10
255.8861903651878
 20
358.4039776511654
 30
0.0
 10
255.7536680000003
 20
358.0413709999993
 30
0.0
 10
255.6192207954409
 20
357.6734976185162
 30
0.0
 10
255.5499999903222
 20
357.281748797981
 30
0.0
 10
255.5500000000002
 20
356.8899999999994
 30
0.0
 10
255.5500000096781
 20
356.4982512020197
 30
0.0
 10
255.6192208341517
 20
356.1065024265954
 30
0.0
 10
255.7536680000003
 20
355.7386289999995
 30
0.0
 10
255.8861903270308
 20
355.3760223043682
 30
0.0
 10
256.0820847137002
 20
355.0366122191535
 30
0.0
 10
256.3297279999997
 20
354.7404179999994
 30
0.0
 10
256.5809680664015
 20
354.439921845229
 30
0.0
 10
256.8854711545446
 20
354.1839060104248
 30
0.0
 10
257.2247189999998
 20
353.9880049999992
 30
0.0
 10
257.5639670884411
 20
353.7921038492605
 30
0.0
 10
257.9379599839658
 20
353.6563176090149
 30
0.0
 10
258.3237470000004
 20
353.5889139999999
 30
0.0
 10
258.7040107398725
 20
353.5224754020692
 30
0.0
 10
259.0957333071274
 20
353.5224753967104
 30
0.0
 10
259.4762529999998
 20
353.5889139999999
 30
0.0
 10
259.8622996867143
 20
353.6563176144518
 30
0.0
 10
260.2368156952816
 20
353.7921038766817
 30
0.0
 10
260.5752810000004
 20
353.9880049999992
 30
0.0
 10
260.9137460622942
 20
354.1839059830036
 30
0.0
 10
261.2161604723824
 20
354.4399217409828
 30
0.0
 10
261.4702720000005
 20
354.7404179999994
 30
0.0
 10
261.7207455307362
 20
355.0366121934512
 30
0.0
 10
261.9242893386181
 20
355.3760223914032
 30
0.0
 10
262.0463309999996
 20
355.7386289999995
 30
0.0
 10
262.1701453444675
 20
356.1065025526441
 30
0.0
 10
262.2100726722338
 20
356.4982512763218
 30
0.0
 10
262.25
 20
356.8899999999994
 30
0.0
  0
ENDBLK
  5
16B
330
168
100
AcDbEntity
  8
0
100
AcDbBlockEnd
  0
BLOCK
  5
16F
330
16D
100
AcDbEntity
  8
0
100
AcDbBlockBegin
  2
block 48
 70
     0
 10
0.0
 20
0.0
 30
0.0
  3
block 48
  1

  0
POLYLINE
  5
171
330
16D
100
AcDbEntity
  8
0
 62
     7
420
 16777215
370
    25
100
AcDb2dPolyline
 66
     1
 10
0.0
 20
0.0
 30
0.0
  0
VERTEX
  5
172
330
171
100
AcDbEntity
  8
0
 62
     7
420
 16777215
370
    25
100
AcDbVertex
100
AcDb2dVertex
 10
255.2799999999997
 20
396.5
 30
0.0
  0
VERTEX
  5
173
330
171
100
AcDbEntity
  8
0
 62
     7
420
 16777215
370
    25
100
AcDbVertex
100
AcDb2dVertex
 10
255.2799999999997
 20
396.5
 30
0.0
  0
SEQEND
  5
174
330
171
100
AcDbEntity
  8
0
 62
     7
420
 16777215
370
    25
  0
ENDBLK
  5
170
330
16D
100
AcDbEntity
  8
0
100
AcDbBlockEnd
  0
BLOCK
  5
177
330
175
100
AcDbEntity
  8
0
100
AcDbBlockBegin
  2
block 49
 70
     0
 10
0.0
 20
0.0
 30
0.0
  3
block 49
  1

  0
SPLINE
  5
179
330
175
100
AcDbEntity
  8
0
 62
     7
420
 16777215
370
    25
100
AcDbSpline
210
0.0
220
0.0
230
1.0
 70
    11
 71
     3
 72
    59
 73
    55
 74
     0
 42
0.0000000001
 43
0.0000000001
 12
1.0
 22
0.0
 32
0.0
 13
1.0
 23
0.0
 33
0.0
 40
0.0
 40
0.0
 40
0.0
 40
0.0
 40
1.0
 40
1.0
 40
1.0
 40
2.0
 40
2.0
 40
2.0
 40
3.0
 40
3.0
 40
3.0
 40
4.0
 40
4.0
 40
4.0
 40
5.0
 40
5.0
 40
5.0
 40
6.0
 40
6.0
 40
6.0
 40
7.0
 40
7.0
 40
7.0
 40
8.0
 40
8.0
 40
8.0
 40
9.0
 40
9.0
 40
9.0
 40
10.0
 40
10.0
 40
10.0
 40
11.0
 40
11.0
 40
11.0
 40
12.0
 40
12.0
 40
12.0
 40
13.0
 40
13.0
 40
13.0
 40
14.0
 40
14.0
 40
14.0
 40
15.0
 40
15.0
 40
15.0
 40
16.0
 40
16.0
 40
16.0
 40
17.0
 40
17.0
 40
17.0
 40
18.0
 40
18.0
 40
18.0
 40
18.0
 10
255.2799999999997
 20
396.5
 30
0.0
 10
255.2400731667249
 20
396.8917487849703
 30
0.0
 10
255.20014633345
 20
397.2834975699398
 30
0.0
 10
255.0763319999996
 20
397.6513709999999
 30
0.0
 10
254.9542902783687
 20
398.0139776990463
 30
0.0
 10
254.7507458455302
 20
398.3533877817663
 30
0.0
 10
254.5002720000002
 20
398.649582
 30
0.0
 10
254.246160263222
 20
398.9500781538381
 30
0.0
 10
253.9437460051086
 20
399.206093989329
 30
0.0
 10
253.6052810000001
 20
399.4019950000002
 30
0.0
 10
253.2668157524668
 20
399.5978961509845
 30
0.0
 10
252.8922997062973
 20
399.7336823910337
 30
0.0
 10
252.5062529999996
 20
399.8010860000004
 30
0.0
 10
252.1257332878249
 20
399.867524597882
 30
0.0
 10
251.7340107187783
 20
399.8675246033372
 30
0.0
 10
251.3537470000001
 20
399.8010860000004
 30
0.0
 10
250.9679600053669
 20
399.7336823854994
 30
0.0
 10
250.5939671548003
 20
399.5978961230721
 30
0.0
 10
250.2547189999996
 20
399.4019950000002
 30
0.0
 10
249.9154710881858
 20
399.2060940172414
 30
0.0
 10
249.6109678223675
 20
398.9500782599516
 30
0.0
 10
249.3597280000004
 20
398.649582
 30
0.0
 10
249.1120850616417
 20
398.3533878056296
 30
0.0
 10
248.9161913877506
 20
398.0139776051828
 30
0.0
 10
248.7836690000004
 20
397.6513709999999
 30
0.0
 10
248.6492216942124
 20
397.2834974508196
 30
0.0
 10
248.5800000096779
 20
396.891748736688
 30
0.0
 10
248.5799999999999
 20
396.5
 30
0.0
 10
248.579999990322
 20
396.108251263312
 30
0.0
 10
248.6492216555016
 20
395.7165025040686
 30
0.0
 10
248.7836690000004
 20
395.3486290000001
 30
0.0
 10
248.9161914259075
 20
394.9860224392833
 30
0.0
 10
249.1120851943724
 20
394.6466123709652
 30
0.0
 10
249.3597280000004
 20
394.350418
 30
0.0
 10
249.6109678259809
 20
394.04992139551
 30
0.0
 10
249.9154709200875
 20
393.793905024886
 30
0.0
 10
250.2547190000005
 20
393.5980039999995
 30
0.0
 10
250.5939670371581
 20
393.4021029998021
 30
0.0
 10
250.9679600513655
 20
393.266317330188
 30
0.0
 10
251.3537470000001
 20
393.1989140000005
 30
0.0
 10
251.7340107844439
 20
393.1324756575104
 30
0.0
 10
252.1257332221676
 20
393.1324756628692
 30
0.0
 10
252.5062529999996
 20
393.1989140000005
 30
0.0
 10
252.8922996602141
 20
393.2663173247529
 30
0.0
 10
253.2668158697788
 20
393.4021029723808
 30
0.0
 10
253.6052810000001
 20
393.5980039999995
 30
0.0
 10
253.9437461728767
 20
393.7939050523073
 30
0.0
 10
254.2461602573239
 20
394.0499214997562
 30
0.0
 10
254.5002720000002
 20
394.350418
 30
0.0
 10
254.7507457134934
 20
394.6466123966675
 30
0.0
 10
254.954290240411
 20
394.9860223522501
 30
0.0
 10
255.0763319999996
 20
395.3486290000001
 30
0.0
 10
255.2001463719589
 20
395.7165023780199
 30
0.0
 10
255.2400731859798
 20
396.1082511890099
 30
0.0
 10
255.2799999999997
 20
396.5
 30
0.0
  0
ENDBLK
  5
178
330
175
100
AcDbEntity
  8
0
100
AcDbBlockEnd
  0
ENDSEC
  0
SECTION
  2
ENTITIES
  0
INSERT
  5
41
330
1F
100
AcDbEntity
  8
0
100
AcDbBlockReference
  2
block 2
 10
0.0
 20
0.0
 30
0.0
  0
INSERT
  5
49
330
1F
100
AcDbEntity
  8
0
100
AcDbBlockReference
  2
block 3
 10
0.0
 20
0.0
 30
0.0
  0
INSERT
  5
4E
330
1F
100
AcDbEntity
  8
0
100
AcDbBlockReference
  2
block 4
 10
0.0
 20
0.0
 30
0.0
  0
INSERT
  5
56
330
1F
100
AcDbEntity
  8
0
100
AcDbBlockReference
  2
block 5
 10
0.0
 20
0.0
 30
0.0
  0
INSERT
  5
5B
330
1F
100
AcDbEntity
  8
0
100
AcDbBlockReference
  2
block 6
 10
0.0
 20
0.0
 30
0.0
  0
INSERT
  5
63
330
1F
100
AcDbEntity
  8
0
100
AcDbBlockReference
  2
block 7
 10
0.0
 20
0.0
 30
0.0
  0
INSERT
  5
68
330
1F
100
AcDbEntity
  8
0
100
AcDbBlockReference
  2
block 8
 10
0.0
 20
0.0
 30
0.0
  0
INSERT
  5
70
330
1F
100
AcDbEntity
  8
0
100
AcDbBlockReference
  2
block 9
 10
0.0
 20
0.0
 30
0.0
  0
INSERT
  5
75
330
1F
100
AcDbEntity
  8
0
100
AcDbBlockReference
  2
block 10
 10
0.0
 20
0.0
 30
0.0
  0
INSERT
  5
7D
330
1F
100
AcDbEntity
  8
0
100
AcDbBlockReference
  2
block 11
 10
0.0
 20
0.0
 30
0.0
  0
INSERT
  5
82
330
1F
100
AcDbEntity
  8
0
100
AcDbBlockReference
  2
block 12
 10
0.0
 20
0.0
 30
0.0
  0
INSERT
  5
8A
330
1F
100
AcDbEntity
  8
0
100
AcDbBlockReference
  2
block 13
 10
0.0
 20
0.0
 30
0.0
  0
INSERT
  5
8F
330
1F
100
AcDbEntity
  8
0
100
AcDbBlockReference
  2
block 14
 10
0.0
 20
0.0
 30
0.0
  0
INSERT
  5
97
330
1F
100
AcDbEntity
  8
0
100
AcDbBlockReference
  2
block 15
 10
0.0
 20
0.0
 30
0.0
  0
INSERT
  5
9C
330
1F
100
AcDbEntity
  8
0
100
AcDbBlockReference
  2
block 16
 10
0.0
 20
0.0
 30
0.0
  0
INSERT
  5
A4
330
1F
100
AcDbEntity
  8
0
100
AcDbBlockReference
  2
block 17
 10
0.0
 20
0.0
 30
0.0
  0
INSERT
  5
A9
330
1F
100
AcDbEntity
  8
0
100
AcDbBlockReference
  2
block 18
 10
0.0
 20
0.0
 30
0.0
  0
INSERT
  5
B1
330
1F
100
AcDbEntity
  8
0
100
AcDbBlockReference
  2
block 19
 10
0.0
 20
0.0
 30
0.0
  0
INSERT
  5
B6
330
1F
100
AcDbEntity
  8
0
100
AcDbBlockReference
  2
block 20
 10
0.0
 20
0.0
 30
0.0
  0
INSERT
  5
BE
330
1F
100
AcDbEntity
  8
0
100
AcDbBlockReference
  2
block 21
 10
0.0
 20
0.0
 30
0.0
  0
INSERT
  5
C3
330
1F
100
AcDbEntity
  8
0
100
AcDbBlockReference
  2
block 22
 10
0.0
 20
0.0
 30
0.0
  0
INSERT
  5
CB
330
1F
100
AcDbEntity
  8
0
100
AcDbBlockReference
  2
block 23
 10
0.0
 20
0.0
 30
0.0
  0
INSERT
  5
D0
330
1F
100
AcDbEntity
  8
0
100
AcDbBlockReference
  2
block 24
 10
0.0
 20
0.0
 30
0.0
  0
INSERT
  5
D8
330
1F
100
AcDbEntity
  8
0
100
AcDbBlockReference
  2
block 25
 10
0.0
 20
0.0
 30
0.0
  0
INSERT
  5
DD
330
1F
100
AcDbEntity
  8
0
100
AcDbBlockReference
  2
block 26
 10
0.0
 20
0.0
 30
0.0
  0
INSERT
  5
E2
330
1F
100
AcDbEntity
  8
0
100
AcDbBlockReference
  2
block 27
 10
0.0
 20
0.0
 30
0.0
  0
INSERT
  5
EB
330
1F
100
AcDbEntity
  8
0
100
AcDbBlockReference
  2
block 28
 10
0.0
 20
0.0
 30
0.0
  0
INSERT
  5
F3
330
1F
100
AcDbEntity
  8
0
100
AcDbBlockReference
  2
block 29
 10
0.0
 20
0.0
 30
0.0
  0
INSERT
  5
F8
330
1F
100
AcDbEntity
  8
0
100
AcDbBlockReference
  2
block 30
 10
0.0
 20
0.0
 30
0.0
  0
INSERT
  5
FD
330
1F
100
AcDbEntity
  8
0
100
AcDbBlockReference
  2
block 31
 10
0.0
 20
0.0
 30
0.0
  0
INSERT
  5
106
330
1F
100
AcDbEntity
  8
0
100
AcDbBlockReference
  2
block 32
 10
0.0
 20
0.0
 30
0.0
  0
INSERT
  5
10E
330
1F
100
AcDbEntity
  8
0
100
AcDbBlockReference
  2
block 33
 10
0.0
 20
0.0
 30
0.0
  0
INSERT
  5
116
330
1F
100
AcDbEntity
  8
0
100
AcDbBlockReference
  2
block 34
 10
0.0
 20
0.0
 30
0.0
  0
INSERT
  5
11B
330
1F
100
AcDbEntity
  8
0
100
AcDbBlockReference
  2
block 35
 10
0.0
 20
0.0
 30
0.0
  0
INSERT
  5
123
330
1F
100
AcDbEntity
  8
0
100
AcDbBlockReference
  2
block 36
 10
0.0
 20
0.0
 30
0.0
  0
INSERT
  5
128
330
1F
100
AcDbEntity
  8
0
100
AcDbBlockReference
  2
block 37
 10
0.0
 20
0.0
 30
0.0
  0
INSERT
  5
130
330
1F
100
AcDbEntity
  8
0
100
AcDbBlockReference
  2
block 38
 10
0.0
 20
0.0
 30
0.0
  0
INSERT
  5
135
330
1F
100
AcDbEntity
  8
0
100
AcDbBlockReference
  2
block 39
 10
0.0
 20
0.0
 30
0.0
  0
INSERT
  5
13D
330
1F
100
AcDbEntity
  8
0
100
AcDbBlockReference
  2
block 40
 10
0.0
 20
0.0
 30
0.0
  0
INSERT
  5
142
330
1F
100
AcDbEntity
  8
0
100
AcDbBlockReference
  2
block 41
 10
0.0
 20
0.0
 30
0.0
  0
INSERT
  5
147
330
1F
100
AcDbEntity
  8
0
100
AcDbBlockReference
  2
block 42
 10
0.0
 20
0.0
 30
0.0
  0
INSERT
  5
14F
330
1F
100
AcDbEntity
  8
0
100
AcDbBlockReference
  2
block 43
 10
0.0
 20
0.0
 30
0.0
  0
INSERT
  5
154
330
1F
100
AcDbEntity
  8
0
100
AcDbBlockReference
  2
block 44
 10
0.0
 20
0.0
 30
0.0
  0
INSERT
  5
15C
330
1F
100
AcDbEntity
  8
0
100
AcDbBlockReference
  2
block 45
 10
0.0
 20
0.0
 30
0.0
  0
INSERT
  5
161
330
1F
100
AcDbEntity
  8
0
100
AcDbBlockReference
  2
block 46
 10
0.0
 20
0.0
 30
0.0
  0
INSERT
  5
169
330
1F
100
AcDbEntity
  8
0
100
AcDbBlockReference
  2
block 47
 10
0.0
 20
0.0
 30
0.0
  0
INSERT
  5
16E
330
1F
100
AcDbEntity
  8
0
100
AcDbBlockReference
  2
block 48
 10
0.0
 20
0.0
 30
0.0
  0
INSERT
  5
176
330
1F
100
AcDbEntity
  8
0
100
AcDbBlockReference
  2
block 49
 10
0.0
 20
0.0
 30
0.0
  0
ENDSEC
  0
SECTION
  2
OBJECTS
  0
DICTIONARY
  5
C
330
0
100
AcDbDictionary
281
     1
  3
ACAD_GROUP
350
D
  3
ACAD_LAYOUT
350
1A
  3
ACAD_MATERIAL
350
3B
  3
ACAD_MLEADERSTYLE
350
17B
  3
ACAD_MLINESTYLE
350
17
  3
ACAD_PLOTSETTINGS
350
19
  3
ACAD_PLOTSTYLENAME
350
E
  3
ACAD_TABLESTYLE
350
17A
  3
ACAD_VISUALSTYLE
350
2A
  0
SUN
  5
3F
330
29
100
AcDbSun
 90
        1
290
     0
 63
     7
421
 16777215
 40
1.0
291
     1
 91
  2455826
 92
 54000000
292
     0
 70
     2
 71
   256
280
     1
  0
DICTIONARY
  5
D
102
{ACAD_REACTORS
330
C
102
}
330
C
100
AcDbDictionary
281
     1
  0
DICTIONARY
  5
1A
102
{ACAD_REACTORS
330
C
102
}
330
C
100
AcDbDictionary
281
     1
  3
Layout1
350
1E
  3
Layout2
350
26
  3
Model
350
22
  0
DICTIONARY
  5
3B
102
{ACAD_REACTORS
330
C
102
}
330
C
100
AcDbDictionary
281
     1
  3
ByBlock
350
3D
  3
ByLayer
350
3C
  3
Global
350
3E
  0
DICTIONARY
  5
17B
102
{ACAD_REACTORS
330
C
102
}
330
C
100
AcDbDictionary
281
     1
  0
DICTIONARY
  5
17
102
{ACAD_REACTORS
330
C
102
}
330
C
100
AcDbDictionary
281
     1
  3
Standard
350
18
  0
DICTIONARY
  5
19
102
{ACAD_REACTORS
330
C
102
}
330
C
100
AcDbDictionary
281
     1
  0
ACDBDICTIONARYWDFLT
  5
E
102
{ACAD_REACTORS
330
C
102
}
330
C
100
AcDbDictionary
281
     1
  3
Normal
350
F
100
AcDbDictionaryWithDefault
340
F
  0
DICTIONARY
  5
17A
102
{ACAD_REACTORS
330
C
102
}
330
C
100
AcDbDictionary
281
     1
  0
DICTIONARY
  5
2A
102
{ACAD_REACTORS
330
C
102
}
330
C
100
AcDbDictionary
281
     1
  3
2dWireframe
350
2F
  3
3D Hidden
350
31
  3
3dWireframe
350
30
  3
Basic
350
32
  3
Brighten
350
36
  3
ColorChange
350
3A
  3
Conceptual
350
34
  3
Dim
350
35
  3
Facepattern
350
39
  3
Flat
350
2B
  3
FlatWithEdges
350
2C
  3
Gouraud
350
2D
  3
GouraudWithEdges
350
2E
  3
Linepattern
350
38
  3
Realistic
350
33
  3
Thicken
350
37
  0
LAYOUT
  5
1E
102
{ACAD_REACTORS
330
1A
102
}
330
1A
100
AcDbPlotSettings
  1

  2
none_device
  4

  6

 40
0.0
 41
0.0
 42
0.0
 43
0.0
 44
0.0
 45
0.0
 46
0.0
 47
0.0
 48
0.0
 49
0.0
140
0.0
141
0.0
142
1.0
143
1.0
 70
   688
 72
     0
 73
     0
 74
     5
  7

 75
    16
 76
     0
 77
     2
 78
   300
147
1.0
148
0.0
149
0.0
100
AcDbLayout
  1
Layout1
 70
     1
 71
     1
 10
0.0
 20
0.0
 11
12.0
 21
9.0
 12
0.0
 22
0.0
 32
0.0
 14
1.000000000000000E+20
 24
1.000000000000000E+20
 34
1.000000000000000E+20
 15
-1.000000000000000E+20
 25
-1.000000000000000E+20
 35
-1.000000000000000E+20
146
0.0
 13
0.0
 23
0.0
 33
0.0
 16
1.0
 26
0.0
 36
0.0
 17
0.0
 27
1.0
 37
0.0
 76
     0
330
1B
  0
LAYOUT
  5
26
102
{ACAD_REACTORS
330
1A
102
}
330
1A
100
AcDbPlotSettings
  1

  2
none_device
  4

  6

 40
0.0
 41
0.0
 42
0.0
 43
0.0
 44
0.0
 45
0.0
 46
0.0
 47
0.0
 48
0.0
 49
0.0
140
0.0
141
0.0
142
1.0
143
1.0
 70
   688
 72
     0
 73
     0
 74
     5
  7

 75
    16
 76
     0
 77
     2
 78
   300
147
1.0
148
0.0
149
0.0
100
AcDbLayout
  1
Layout2
 70
     1
 71
     2
 10
0.0
 20
0.0
 11
0.0
 21
0.0
 12
0.0
 22
0.0
 32
0.0
 14
0.0
 24
0.0
 34
0.0
 15
0.0
 25
0.0
 35
0.0
146
0.0
 13
0.0
 23
0.0
 33
0.0
 16
1.0
 26
0.0
 36
0.0
 17
0.0
 27
1.0
 37
0.0
 76
     0
330
23
  0
LAYOUT
  5
22
102
{ACAD_REACTORS
330
1A
102
}
330
1A
100
AcDbPlotSettings
  1

  2
none_device
  4

  6

 40
0.0
 41
0.0
 42
0.0
 43
0.0
 44
0.0
 45
0.0
 46
0.0
 47
0.0
 48
0.0
 49
0.0
140
0.0
141
0.0
142
1.0
143
1.0
 70
  1712
 72
     0
 73
     0
 74
     0
  7

 75
     0
 76
     0
 77
     2
 78
   300
147
1.0
148
0.0
149
0.0
100
AcDbLayout
  1
Model
 70
     1
 71
     0
 10
0.0
 20
0.0
 11
12.0
 21
9.0
 12
0.0
 22
0.0
 32
0.0
 14
1.000000000000000E+20
 24
1.000000000000000E+20
 34
1.000000000000000E+20
 15
-1.000000000000000E+20
 25
-1.000000000000000E+20
 35
-1.000000000000000E+20
146
0.0
 13
0.0
 23
0.0
 33
0.0
 16
1.0
 26
0.0
 36
0.0
 17
0.0
 27
1.0
 37
0.0
 76
     0
330
1F
331
29
  0
MATERIAL
  5
3D
102
{ACAD_REACTORS
330
3B
102
}
330
3B
100
AcDbMaterial
  1
ByBlock
 72
     1
 94
      127
  0
MATERIAL
  5
3C
102
{ACAD_REACTORS
330
3B
102
}
330
3B
100
AcDbMaterial
  1
ByLayer
 72
     1
 94
      127
  0
MATERIAL
  5
3E
102
{ACAD_REACTORS
330
3B
102
}
330
3B
100
AcDbMaterial
  1
Global
 72
     1
 94
      127
  0
MLINESTYLE
  5
18
102
{ACAD_REACTORS
330
17
102
}
330
17
100
AcDbMlineStyle
  2
Standard
 70
     0
  3

 62
   256
 51
90.0
 52
90.0
 71
     2
 49
0.5
 62
   256
  6
BYLAYER
 49
-0.5
 62
   256
  6
BYLAYER
  0
ACDBPLACEHOLDER
  5
F
102
{ACAD_REACTORS
330
E
102
}
330
E
  0
VISUALSTYLE
  5
2F
102
{ACAD_REACTORS
330
2A
102
}
330
2A
100
AcDbVisualStyle
  2
2dWireframe
 70
     4
177
     2
291
     0
 71
     0
176
     1
 72
     2
176
     1
 73
     0
176
     1
 90
        0
176
     1
 40
-0.6
176
     1
 41
-30.0
176
     1
 62
     5
 63
     7
421
 16777215
176
     1
 74
     1
176
     1
 91
        4
176
     1
 64
     7
176
     1
 65
   257
176
     1
 75
     1
176
     1
175
     1
176
     1
 42
1.0
176
     1
 92
        0
176
     1
 66
   257
176
     1
 43
1.0
176
     1
 76
     1
176
     1
 77
     6
176
     1
 78
     2
176
     1
 67
     7
176
     1
 79
     5
176
     1
170
     0
176
     1
171
     0
176
     1
290
     0
176
     1
 93
        1
176
     1
 44
0.0
176
     1
173
     0
176
     1
  0
VISUALSTYLE
  5
31
102
{ACAD_REACTORS
330
2A
102
}
330
2A
100
AcDbVisualStyle
  2
3D Hidden
 70
     6
177
     2
291
     0
 71
     1
176
     1
 72
     2
176
     1
 73
     2
176
     1
 90
        0
176
     1
 40
-0.6
176
     1
 41
-30.0
176
     1
 62
     5
 63
     7
421
 16777215
176
     1
 74
     2
176
     1
 91
        2
176
     1
 64
     7
176
     1
 65
   257
176
     1
 75
     2
176
     1
175
     1
176
     1
 42
40.0
176
     1
 92
        0
176
     1
 66
   257
176
     1
 43
1.0
176
     1
 76
     1
176
     1
 77
     6
176
     1
 78
     2
176
     1
 67
     7
176
     1
 79
     3
176
     1
170
     0
176
     1
171
     0
176
     1
290
     0
176
     1
 93
        1
176
     1
 44
0.0
176
     1
173
     0
176
     1
  0
VISUALSTYLE
  5
30
102
{ACAD_REACTORS
330
2A
102
}
330
2A
100
AcDbVisualStyle
  2
3dWireframe
 70
     5
177
     2
291
     0
 71
     0
176
     1
 72
     2
176
     1
 73
     0
176
     1
 90
        0
176
     1
 40
-0.6
176
     1
 41
-30.0
176
     1
 62
     5
 63
     7
421
 16777215
176
     1
 74
     1
176
     1
 91
        4
176
     1
 64
     7
176
     1
 65
   257
176
     1
 75
     1
176
     1
175
     1
176
     1
 42
1.0
176
     1
 92
        0
176
     1
 66
   257
176
     1
 43
1.0
176
     1
 76
     1
176
     1
 77
     6
176
     1
 78
     2
176
     1
 67
     7
176
     1
 79
     5
176
     1
170
     0
176
     1
171
     0
176
     1
290
     0
176
     1
 93
        1
176
     1
 44
0.0
176
     1
173
     0
176
     1
  0
VISUALSTYLE
  5
32
102
{ACAD_REACTORS
330
2A
102
}
330
2A
100
AcDbVisualStyle
  2
Basic
 70
     7
177
     2
291
     1
 71
     1
176
     1
 72
     0
176
     1
 73
     1
176
     1
 90
        0
176
     1
 40
-0.6
176
     1
 41
-30.0
176
     1
 62
     5
 63
     7
421
 16777215
176
     1
 74
     0
176
     1
 91
        4
176
     1
 64
     7
176
     1
 65
   257
176
     1
 75
     1
176
     1
175
     1
176
     1
 42
1.0
176
     1
 92
        8
176
     1
 66
     7
176
     1
 43
1.0
176
     1
 76
     1
176
     1
 77
     6
176
     1
 78
     2
176
     1
 67
     7
176
     1
 79
     5
176
     1
170
     0
176
     1
171
     0
176
     1
290
     0
176
     1
 93
        1
176
     1
 44
0.0
176
     1
173
     0
176
     1
  0
VISUALSTYLE
  5
36
102
{ACAD_REACTORS
330
2A
102
}
330
2A
100
AcDbVisualStyle
  2
Brighten
 70
    12
177
     2
291
     1
 71
     2
176
     1
 72
     2
176
     1
 73
     0
176
     1
 90
        0
176
     1
 40
-0.6
176
     1
 41
-30.0
176
     1
 62
     5
 63
     7
421
 16777215
176
     1
 74
     1
176
     1
 91
        4
176
     1
 64
     7
176
     1
 65
   257
176
     1
 75
     1
176
     1
175
     1
176
     1
 42
1.0
176
     1
 92
        8
176
     1
 66
     7
176
     1
 43
1.0
176
     1
 76
     1
176
     1
 77
     6
176
     1
 78
     2
176
     1
 67
     7
176
     1
 79
     5
176
     1
170
     0
176
     1
171
     0
176
     1
290
     0
176
     1
 93
        1
176
     1
 44
50.0
176
     1
173
     0
176
     1
  0
VISUALSTYLE
  5
3A
102
{ACAD_REACTORS
330
2A
102
}
330
2A
100
AcDbVisualStyle
  2
ColorChange
 70
    16
177
     2
291
     1
 71
     2
176
     1
 72
     2
176
     1
 73
     3
176
     1
 90
        0
176
     1
 40
-0.6
176
     1
 41
-30.0
176
     1
 62
     5
 63
     8
421
  8421504
176
     1
 74
     1
176
     1
 91
        4
176
     1
 64
     7
176
     1
 65
   257
176
     1
 75
     1
176
     1
175
     1
176
     1
 42
1.0
176
     1
 92
        8
176
     1
 66
     8
424
  8421504
176
     1
 43
1.0
176
     1
 76
     1
176
     1
 77
     6
176
     1
 78
     2
176
     1
 67
     7
176
     1
 79
     5
176
     1
170
     0
176
     1
171
     0
176
     1
290
     0
176
     1
 93
        1
176
     1
 44
0.0
176
     1
173
     0
176
     1
  0
VISUALSTYLE
  5
34
102
{ACAD_REACTORS
330
2A
102
}
330
2A
100
AcDbVisualStyle
  2
Conceptual
 70
     9
177
     2
291
     0
 71
     3
176
     1
 72
     2
176
     1
 73
     0
176
     1
 90
        0
176
     1
 40
-0.6
176
     1
 41
-30.0
176
     1
 62
     5
 63
     7
421
 16777215
176
     1
 74
     2
176
     1
 91
        2
176
     1
 64
     7
176
     1
 65
   257
176
     1
 75
     1
176
     1
175
     1
176
     1
 42
40.0
176
     1
 92
        8
176
     1
 66
     7
176
     1
 43
1.0
176
     1
 76
     1
176
     1
 77
     6
176
     1
 78
     2
176
     1
 67
     7
176
     1
 79
     3
176
     1
170
     0
176
     1
171
     0
176
     1
290
     0
176
     1
 93
        1
176
     1
 44
0.0
176
     1
173
     0
176
     1
  0
VISUALSTYLE
  5
35
102
{ACAD_REACTORS
330
2A
102
}
330
2A
100
AcDbVisualStyle
  2
Dim
 70
    11
177
     2
291
     1
 71
     2
176
     1
 72
     2
176
     1
 73
     0
176
     1
 90
        0
176
     1
 40
-0.6
176
     1
 41
-30.0
176
     1
 62
     5
 63
     7
421
 16777215
176
     1
 74
     1
176
     1
 91
        4
176
     1
 64
     7
176
     1
 65
   257
176
     1
 75
     1
176
     1
175
     1
176
     1
 42
1.0
176
     1
 92
        8
176
     1
 66
     7
176
     1
 43
1.0
176
     1
 76
     1
176
     1
 77
     6
176
     1
 78
     2
176
     1
 67
     7
176
     1
 79
     5
176
     1
170
     0
176
     1
171
     0
176
     1
290
     0
176
     1
 93
        1
176
     1
 44
-50.0
176
     1
173
     0
176
     1
  0
VISUALSTYLE
  5
39
102
{ACAD_REACTORS
330
2A
102
}
330
2A
100
AcDbVisualStyle
  2
Facepattern
 70
    15
177
     2
291
     1
 71
     2
176
     1
 72
     2
176
     1
 73
     0
176
     1
 90
        0
176
     1
 40
-0.6
176
     1
 41
-30.0
176
     1
 62
     5
 63
     7
421
 16777215
176
     1
 74
     1
176
     1
 91
        4
176
     1
 64
     7
176
     1
 65
   257
176
     1
 75
     1
176
     1
175
     1
176
     1
 42
1.0
176
     1
 92
        8
176
     1
 66
     7
176
     1
 43
1.0
176
     1
 76
     1
176
     1
 77
     6
176
     1
 78
     2
176
     1
 67
     7
176
     1
 79
     5
176
     1
170
     0
176
     1
171
     0
176
     1
290
     0
176
     1
 93
        1
176
     1
 44
0.0
176
     1
173
     0
176
     1
  0
VISUALSTYLE
  5
2B
102
{ACAD_REACTORS
330
2A
102
}
330
2A
100
AcDbVisualStyle
  2
Flat
 70
     0
177
     2
291
     1
 71
     2
176
     1
 72
     1
176
     1
 73
     1
176
     1
 90
        2
176
     1
 40
-0.6
176
     1
 41
30.0
176
     1
 62
     5
 63
     7
421
 16777215
176
     1
 74
     0
176
     1
 91
        4
176
     1
 64
     7
176
     1
 65
   257
176
     1
 75
     1
176
     1
175
     1
176
     1
 42
1.0
176
     1
 92
        8
176
     1
 66
     7
176
     1
 43
1.0
176
     1
 76
     1
176
     1
 77
     6
176
     1
 78
     2
176
     1
 67
     7
176
     1
 79
     5
176
     1
170
     0
176
     1
171
     0
176
     1
290
     0
176
     1
 93
       13
176
     1
 44
0.0
176
     1
173
     0
176
     1
  0
VISUALSTYLE
  5
2C
102
{ACAD_REACTORS
330
2A
102
}
330
2A
100
AcDbVisualStyle
  2
FlatWithEdges
 70
     1
177
     2
291
     1
 71
     2
176
     1
 72
     1
176
     1
 73
     1
176
     1
 90
        2
176
     1
 40
-0.6
176
     1
 41
30.0
176
     1
 62
     5
 63
     7
421
 16777215
176
     1
 74
     1
176
     1
 91
        4
176
     1
 64
     7
176
     1
 65
   257
176
     1
 75
     1
176
     1
175
     1
176
     1
 42
1.0
176
     1
 92
        0
176
     1
 66
   257
176
     1
 43
1.0
176
     1
 76
     1
176
     1
 77
     6
176
     1
 78
     2
176
     1
 67
     7
176
     1
 79
     5
176
     1
170
     0
176
     1
171
     0
176
     1
290
     0
176
     1
 93
       13
176
     1
 44
0.0
176
     1
173
     0
176
     1
  0
VISUALSTYLE
  5
2D
102
{ACAD_REACTORS
330
2A
102
}
330
2A
100
AcDbVisualStyle
  2
Gouraud
 70
     2
177
     2
291
     1
 71
     2
176
     1
 72
     2
176
     1
 73
     1
176
     1
 90
        2
176
     1
 40
-0.6
176
     1
 41
30.0
176
     1
 62
     5
 63
     7
421
 16777215
176
     1
 74
     0
176
     1
 91
        4
176
     1
 64
     7
176
     1
 65
   257
176
     1
 75
     1
176
     1
175
     1
176
     1
 42
1.0
176
     1
 92
        0
176
     1
 66
     7
176
     1
 43
1.0
176
     1
 76
     1
176
     1
 77
     6
176
     1
 78
     2
176
     1
 67
     7
176
     1
 79
     5
176
     1
170
     0
176
     1
171
     0
176
     1
290
     0
176
     1
 93
       13
176
     1
 44
0.0
176
     1
173
     0
176
     1
  0
VISUALSTYLE
  5
2E
102
{ACAD_REACTORS
330
2A
102
}
330
2A
100
AcDbVisualStyle
  2
GouraudWithEdges
 70
     3
177
     2
291
     1
 71
     2
176
     1
 72
     2
176
     1
 73
     1
176
     1
 90
        2
176
     1
 40
-0.6
176
     1
 41
30.0
176
     1
 62
     5
 63
     7
421
 16777215
176
     1
 74
     1
176
     1
 91
        4
176
     1
 64
     7
176
     1
 65
   257
176
     1
 75
     1
176
     1
175
     1
176
     1
 42
1.0
176
     1
 92
        0
176
     1
 66
   257
176
     1
 43
1.0
176
     1
 76
     1
176
     1
 77
     6
176
     1
 78
     2
176
     1
 67
     7
176
     1
 79
     5
176
     1
170
     0
176
     1
171
     0
176
     1
290
     0
176
     1
 93
       13
176
     1
 44
0.0
176
     1
173
     0
176
     1
  0
VISUALSTYLE
  5
38
102
{ACAD_REACTORS
330
2A
102
}
330
2A
100
AcDbVisualStyle
  2
Linepattern
 70
    14
177
     2
291
     1
 71
     2
176
     1
 72
     2
176
     1
 73
     0
176
     1
 90
        0
176
     1
 40
-0.6
176
     1
 41
-30.0
176
     1
 62
     5
 63
     7
421
 16777215
176
     1
 74
     1
176
     1
 91
        4
176
     1
 64
     7
176
     1
 65
   257
176
     1
 75
     7
176
     1
175
     7
176
     1
 42
1.0
176
     1
 92
        8
176
     1
 66
     7
176
     1
 43
1.0
176
     1
 76
     1
176
     1
 77
     6
176
     1
 78
     2
176
     1
 67
     7
176
     1
 79
     5
176
     1
170
     0
176
     1
171
     0
176
     1
290
     0
176
     1
 93
        1
176
     1
 44
0.0
176
     1
173
     0
176
     1
  0
VISUALSTYLE
  5
33
102
{ACAD_REACTORS
330
2A
102
}
330
2A
100
AcDbVisualStyle
  2
Realistic
 70
     8
177
     2
291
     0
 71
     2
176
     1
 72
     2
176
     1
 73
     0
176
     1
 90
        0
176
     1
 40
-0.6
176
     1
 41
-30.0
176
     1
 62
     5
 63
     7
421
 16777215
176
     1
 74
     1
176
     1
 91
        0
176
     1
 64
     7
176
     1
 65
   257
176
     1
 75
     1
176
     1
175
     1
176
     1
 42
1.0
176
     1
 92
        8
176
     1
 66
     8
424
  7895160
176
     1
 43
1.0
176
     1
 76
     1
176
     1
 77
     6
176
     1
 78
     2
176
     1
 67
     7
176
     1
 79
     5
176
     1
170
     0
176
     1
171
     0
176
     1
290
     0
176
     1
 93
       13
176
     1
 44
0.0
176
     1
173
     0
176
     1
  0
VISUALSTYLE
  5
37
102
{ACAD_REACTORS
330
2A
102
}
330
2A
100
AcDbVisualStyle
  2
Thicken
 70
    13
177
     2
291
     1
 71
     2
176
     1
 72
     2
176
     1
 73
     0
176
     1
 90
        0
176
     1
 40
-0.6
176
     1
 41
-30.0
176
     1
 62
     5
 63
     7
421
 16777215
176
     1
 74
     1
176
     1
 91
        4
176
     1
 64
     7
176
     1
 65
   257
176
     1
 75
     1
176
     1
175
     1
176
     1
 42
1.0
176
     1
 92
       12
176
     1
 66
     7
176
     1
 43
1.0
176
     1
 76
     1
176
     1
 77
     6
176
     1
 78
     2
176
     1
 67
     7
176
     1
 79
     5
176
     1
170
     0
176
     1
171
     0
176
     1
290
     0
176
     1
 93
        1
176
     1
 44
0.0
176
     1
173
     0
176
     1
  0
ENDSEC
  0
EOF
